<svg xmlns="http://www.w3.org/2000/svg" width="24" height="24" viewBox="0 0 24 24">
  <g id="Group_3739" data-name="Group 3739" transform="translate(-3089 853)">
    <circle id="Ellipse_16" data-name="Ellipse 16" cx="12" cy="12" r="12" transform="translate(3089 -853)" fill="#e9ecef"/>
    <path id="icons8-delete_3_" data-name="icons8-delete (3)" d="M16.531,6.978a.441.441,0,0,0-.307.135l-4.241,4.241L7.741,7.114a.441.441,0,1,0-.623.623l4.241,4.241L7.118,16.219a.441.441,0,1,0,.623.623L11.982,12.6l4.241,4.241a.441.441,0,1,0,.623-.623l-4.241-4.241,4.241-4.241a.441.441,0,0,0-.316-.758Z" transform="translate(3089.015 -852.978)" fill="#b3c1c8"/>
  </g>
</svg>
