<svg xmlns="http://www.w3.org/2000/svg" xmlns:xlink="http://www.w3.org/1999/xlink" width="701" height="864" viewBox="0 0 701 864">
  <defs>
    <linearGradient id="linear-gradient" x1="-0.351" y1="0.5" x2="0.649" y2="0.5" gradientUnits="objectBoundingBox">
      <stop offset="0" stop-color="#e4ecfb"/>
      <stop offset="1" stop-color="#b4c7f6"/>
    </linearGradient>
    <linearGradient id="linear-gradient-2" y1="0.5" x2="1" y2="0.5" gradientUnits="objectBoundingBox">
      <stop offset="0" stop-color="#78a7ff"/>
      <stop offset="1" stop-color="#3d79f3"/>
    </linearGradient>
    <linearGradient id="linear-gradient-3" x1="0.505" y1="0.62" x2="0.411" y2="-1.503" gradientUnits="objectBoundingBox">
      <stop offset="0" stop-color="#e7ecff"/>
      <stop offset="1" stop-color="#c2d5ff"/>
    </linearGradient>
    <linearGradient id="linear-gradient-4" x1="-6.721" y1="-31.868" x2="-5.759" y2="-31.868" gradientUnits="objectBoundingBox">
      <stop offset="0" stop-color="#fff"/>
      <stop offset="1" stop-color="#d9dded"/>
    </linearGradient>
  </defs>
  <g id="Group_3833" data-name="Group 3833" transform="translate(51 47)">
    <g id="_60_Converted_" data-name="60 [Converted]" transform="translate(35.731 177.74)">
      <path id="Path_880" data-name="Path 880" d="M42.676,239.818a6.463,6.463,0,1,1-6.458-6.468A6.455,6.455,0,0,1,42.676,239.818Z" transform="translate(-0.481 -10.414)" fill="#d4e2ff"/>
      <path id="Path_881" data-name="Path 881" d="M414.366,54.008a6.463,6.463,0,1,1-6.458-6.468A6.455,6.455,0,0,1,414.366,54.008Z" transform="translate(-19.172 -1.07)" fill="#d4e4ff"/>
      <path id="Path_882" data-name="Path 882" d="M39.928,282.589A3.229,3.229,0,1,1,36.7,279.36,3.226,3.226,0,0,1,39.928,282.589Z" transform="translate(-0.668 -12.728)" fill="#d4e2ff"/>
      <path id="Path_889" data-name="Path 889" d="M546.353,191.526a6.553,6.553,0,1,1,6.553-6.553A6.56,6.56,0,0,1,546.353,191.526Zm0-11.976a5.432,5.432,0,1,0,5.432,5.432A5.437,5.437,0,0,0,546.353,179.55Z" transform="translate(-26.13 -7.652)" fill="#c4d2f6"/>
      <path id="Path_890" data-name="Path 890" d="M511.389,256.145C473.3,211.328,331.732,94.276,276.127,123.945,262.764,100,224.12,91.151,174.887,109.917c-68.2,25.994-106.909,75.844-117.071,111.145-16.81,58.369,34,129.683,83,115.191,18.415-5.442,37.542,1.615,56.964,8.851,55.007,29.982,114.136,42.481,156.722,42.1,101.743-.912,199.1-81.409,156.892-131.07Z" transform="translate(8.278 -2.856)" fill="#e8f0fe"/>
      <path id="Path_891" data-name="Path 891" d="M354.1,388.381c-49.546,0-108.362-15.974-157.842-42.936-19.108-7.123-38.862-14.474-57.429-8.975-19.042,5.632-40.03-1.13-57.591-18.567-25.918-25.728-37.381-66.717-27.893-99.682C64.3,180.166,105.551,130.268,173,104.55c46.887-17.874,88.38-12.242,103.652,13.951,29.565-15.756,58.721-30.419,90.156-37.3,36.9-8.073,71.713-4.065,106.425,12.242,49.29,23.154,42.671,58.6,36.27,92.882-4.654,24.939-9.06,48.492,6.933,67.306,11.852,13.951,13.695,31.008,5.309,49.347-9.63,21.074-32.347,42.376-62.339,58.455-31.806,17.057-68.484,26.62-103.291,26.924h-2.032ZM152.638,332.955c14.664,0,29.641,5.575,44.228,11.017l.1.047c49.936,27.219,109.426,43.231,159.143,42.756,34.551-.3,70.972-9.8,102.55-26.734,29.688-15.917,52.149-36.953,61.646-57.714,8.1-17.731,6.354-34.209-5.081-47.657-16.478-19.384-11.8-44.418-7.284-68.626,6.287-33.686,12.793-68.512-35.386-91.144-78.826-37.039-143.71-2.422-195.84,25.386l-.693.37-.38-.684c-14.54-26.06-55.568-31.654-102.075-13.923C106.634,131.569,65.72,181,54.874,218.677c-9.336,32.423,1.966,72.767,27.485,98.105,17.133,17.009,37.542,23.629,56.014,18.168a49.793,49.793,0,0,1,14.265-1.985Z" transform="translate(-1.501 -2.56)" fill="#dae9fc"/>
      <path id="Path_902" data-name="Path 902" d="M124.716,126.393a9.008,9.008,0,1,1-9-9.013A9.006,9.006,0,0,1,124.716,126.393Z" transform="translate(-4.35 -4.582)" fill="#e8f1fe"/>
      <path id="Path_903" data-name="Path 903" d="M556.273,161.692a4.5,4.5,0,1,1-4.5-4.5A4.5,4.5,0,0,1,556.273,161.692Z" transform="translate(-26.506 -6.584)" fill="#e8f1fe"/>
      <path id="Path_904" data-name="Path 904" d="M408.7,80.792a4.877,4.877,0,1,1-4.872-4.882A4.872,4.872,0,0,1,408.7,80.792Z" transform="translate(-19.047 -2.497)" fill="#fff"/>
      <path id="Path_905" data-name="Path 905" d="M298.074,373.972a4.877,4.877,0,1,1-4.872-4.882A4.872,4.872,0,0,1,298.074,373.972Z" transform="translate(-13.484 -17.24)" fill="#fff"/>
      <path id="Path_906" data-name="Path 906" d="M399.871,383a1493.294,1493.294,0,1,0,.009-.01Zm0-12.375a2.319,2.319,0,1,0,.01-.009Z" transform="translate(-18.752 -17.257)" fill="#fff"/>
      <path id="Path_907" data-name="Path 907" d="M215.633,213.817c-52.3,30.239,5.5,107.773,69.509,114.573,58.873,6.249,122.465-26.336,136.493-37.77,36.592-29.849,48.825-59.813,37.447-85.417-12.527-28.2-51.655-57.477-96.766-35.909-36.317,17.361-45.881,39.679-61.978,42.861-34.114,6.743-62.786-11.017-84.7,1.652Z" transform="translate(-8.806 -6.818)" fill="#d3e2fb"/>
      <path id="Path_908" data-name="Path 908" d="M175.463,159.233c-59.49,10.523-31.7,103.158,26.127,131.44,53.184,26.013,124.089,17.142,141.175,11.188,44.6-15.528,66.337-39.508,64.4-67.458-2.127-30.78-28.881-71.675-78.646-66.841-40.059,3.894-56.679,21.6-72.9,19.08-34.361-5.328-55.235-31.834-80.165-27.418Z" transform="translate(-6.14 -6.662)" fill="#d3e2fb"/>
      <rect id="Rectangle_63" data-name="Rectangle 63" width="133.919" height="293.072" rx="5.93" transform="translate(253.857 71.599)" fill="#2876f9" opacity="0.63"/>
      <rect id="Rectangle_64" data-name="Rectangle 64" width="133.919" height="293.072" rx="5.93" transform="translate(253.857 71.599)" fill="#fff"/>
      <path id="Path_917" data-name="Path 917" d="M394.517,380.954H271.862a5.632,5.632,0,0,1-5.632-5.632V350.05H400.149v25.272a5.632,5.632,0,0,1-5.632,5.632Z" transform="translate(-12.373 -16.283)" fill="#e8eefb"/>
      <path id="Path_918" data-name="Path 918" d="M395.42,381.992H271.112a4.876,4.876,0,0,1-4.872-4.872v-6.43H400.159v6.572a4.73,4.73,0,0,1-4.73,4.73Z" transform="translate(-12.373 -17.321)" fill="#dae2f5"/>
      <path id="Path_919" data-name="Path 919" d="M402.185,73.692a14.956,14.956,0,0,0-12.014-6.012H275.645A15,15,0,0,0,260.64,82.695v274.3a15,15,0,0,0,15,15H390.162a15.013,15.013,0,0,0,15.015-15V82.695a14.859,14.859,0,0,0-3.011-9ZM399.877,355.8a10.964,10.964,0,0,1-10.96,10.96H276.9a10.948,10.948,0,0,1-10.941-10.96V84.632A10.931,10.931,0,0,1,276.9,73.692H388.918a10.948,10.948,0,0,1,10.96,10.941V355.8Z" transform="translate(-12.092 -2.083)" fill="#2877fa"/>
      <path id="Path_920" data-name="Path 920" d="M344.866,122.9H327.61l1.349-35.215h14.35Z" transform="translate(-15.459 -3.089)" fill="#f24637"/>
      <path id="Path_921" data-name="Path 921" d="M337.79,139.66h-3.115a7.075,7.075,0,0,1-7.075-7.075V124.75h17.266v7.835a7.075,7.075,0,0,1-7.075,7.075Z" transform="translate(-15.459 -4.953)" fill="#e31c0b"/>
      <path id="Path_922" data-name="Path 922" d="M326.7,122.9H309.43l4.122-35.215h14.493Z" transform="translate(-14.545 -3.089)" fill="#fff"/>
      <path id="Path_923" data-name="Path 923" d="M319.592,139.66h-3.068a7.1,7.1,0,0,1-7.094-7.094V124.75H326.7v7.816a7.1,7.1,0,0,1-7.094,7.094Z" transform="translate(-14.545 -4.953)" fill="#e0e6f3"/>
      <path id="Path_924" data-name="Path 924" d="M308.416,122.9H291.15L298.4,87.68h14.027Z" transform="translate(-13.626 -3.089)" fill="#f24637"/>
      <path id="Path_925" data-name="Path 925" d="M301.416,139.66h-3.267a7,7,0,0,1-7-7V124.75h17.266v7.911A7,7,0,0,1,301.416,139.66Z" transform="translate(-13.626 -4.953)" fill="#e31c0b"/>
      <path id="Path_926" data-name="Path 926" d="M290.216,122.9H272.95l9.7-35.215h14.835Z" transform="translate(-12.711 -3.089)" fill="#fff"/>
      <path id="Path_927" data-name="Path 927" d="M283.2,139.66h-3.239a7.01,7.01,0,0,1-7.009-7.009v-7.9h17.266v7.9a7.01,7.01,0,0,1-7.009,7.009Z" transform="translate(-12.711 -4.953)" fill="#e0e6f3"/>
      <path id="Path_928" data-name="Path 928" d="M272.076,122.9H254.81L267.194,87.68h14.54Z" transform="translate(-11.798 -3.089)" fill="#f24637"/>
      <path id="Path_929" data-name="Path 929" d="M264.943,139.66h-3.011a7.125,7.125,0,0,1-7.123-7.123V124.75h17.266v7.788a7.125,7.125,0,0,1-7.123,7.123Z" transform="translate(-11.798 -4.953)" fill="#e31c0b"/>
      <path id="Path_930" data-name="Path 930" d="M345.8,122.9h17.266L358.943,87.68H344.45Z" transform="translate(-16.306 -3.089)" fill="#fff"/>
      <path id="Path_931" data-name="Path 931" d="M353,139.66h3a7.13,7.13,0,0,0,7.132-7.132V124.75H345.87v7.778A7.129,7.129,0,0,0,353,139.66Z" transform="translate(-16.378 -4.953)" fill="#e0e6f3"/>
      <path id="Path_932" data-name="Path 932" d="M363.938,122.9h17.256L373.948,87.68H359.93Z" transform="translate(-17.085 -3.089)" fill="#f24637"/>
      <path id="Path_933" data-name="Path 933" d="M372.773,139.66a8.633,8.633,0,0,0,8.633-8.633V124.75H364.14v6.278A8.633,8.633,0,0,0,372.773,139.66Z" transform="translate(-17.296 -4.953)" fill="#e31c0b"/>
      <path id="Path_934" data-name="Path 934" d="M381.965,122.9h17.256L389.534,87.68H374.69Z" transform="translate(-17.827 -3.089)" fill="#fff"/>
      <path id="Path_935" data-name="Path 935" d="M389.444,139.66h3.068a7.1,7.1,0,0,0,7.094-7.094V124.75H382.34v7.816a7.1,7.1,0,0,0,7.094,7.094Z" transform="translate(-18.212 -4.953)" fill="#e0e6f3"/>
      <path id="Path_936" data-name="Path 936" d="M399.979,122.9h17.266L404.86,87.68H390.32Z" transform="translate(-18.613 -3.089)" fill="#f24637"/>
      <path id="Path_937" data-name="Path 937" d="M409.123,139.66a8.633,8.633,0,0,0,8.633-8.633V124.75H400.49v6.278A8.633,8.633,0,0,0,409.123,139.66Z" transform="translate(-19.124 -4.953)" fill="#e31c0b"/>
      <rect id="Rectangle_65" data-name="Rectangle 65" width="45.482" height="8.975" transform="translate(325.257 162.354)" fill="#e8eefb"/>
      <rect id="Rectangle_66" data-name="Rectangle 66" width="9.393" height="9.393" transform="translate(360.88 181.471)" fill="#e8eefb"/>
      <rect id="Rectangle_67" data-name="Rectangle 67" width="45.482" height="8.975" transform="translate(325.257 251.418)" fill="#e8eefb"/>
      <path id="Path_938" data-name="Path 938" d="M354.644,345.386H321.49V338.71h33.154Zm-32.993-.161h32.832v-6.354H321.651Z" transform="translate(-15.152 -15.712)" fill="#8196c7"/>
      <rect id="Rectangle_68" data-name="Rectangle 68" width="9.393" height="9.393" transform="translate(360.88 270.536)" fill="#e8eefb"/>
      <rect id="Rectangle_69" data-name="Rectangle 69" width="48.198" height="0.161" transform="translate(299.795 317.204)" fill="#8196c7"/>
      <path id="Path_939" data-name="Path 939" d="M278.04,317.25H387.893v3.02H278.04v-3.02Z" transform="translate(-12.967 -14.633)" fill="#b8d2fb"/>
      <path id="Path_940" data-name="Path 940" d="M278.3,216.82H388.153v3.02H278.3Z" transform="translate(-12.98 -9.583)" fill="#b8d2fb"/>
      <path id="Path_941" data-name="Path 941" d="M278.31,223.05H388.163v3.02H278.31Z" transform="translate(-12.98 -9.896)" fill="#b8d2fb"/>
      <path id="Path_942" data-name="Path 942" d="M278.14,229.937l33.126-.057v3.02l-33.126.057Z" transform="translate(-12.972 -10.24)" fill="#b8d2fb"/>
      <path id="Path_943" data-name="Path 943" d="M278.04,311.02H387.893v3.02H278.04v-3.02Z" transform="translate(-12.967 -14.32)" fill="#b8d2fb"/>
      <path id="Path_944" data-name="Path 944" d="M277.88,324.137l33.126-.057v3.02l-33.126.057Z" transform="translate(-12.959 -14.977)" fill="#b8d2fb"/>
      <path id="Path_945" data-name="Path 945" d="M378.785,177.734a.286.286,0,0,1-.285-.285v-6.714a.286.286,0,0,1,.285-.285.28.28,0,0,1,.285.285v6.714A.286.286,0,0,1,378.785,177.734Z" transform="translate(-18.019 -7.251)" fill="#0c5df5"/>
      <g id="Group_3773" data-name="Group 3773" transform="translate(363.728 165.135)">
        <path id="Path_946" data-name="Path 946" d="M382.22,172.79h4.055l-1.88,2.859-2.175-2.859Z" transform="translate(-381.934 -172.504)" fill="#fff"/>
        <path id="Path_947" data-name="Path 947" d="M384.38,175.909a.283.283,0,0,1-.228-.114l-2.175-2.859a.277.277,0,0,1,.218-.446h4.055a.258.258,0,0,1,.247.133.278.278,0,0,1-.009.285l-1.88,2.878a.28.28,0,0,1-.228.123Zm-1.615-2.859,1.6,2.1,1.377-2.108h-2.973Z" transform="translate(-381.919 -172.489)" fill="#0c5df5"/>
      </g>
      <path id="Path_948" data-name="Path 948" d="M381.9,193.081a2.436,2.436,0,0,1,.475-1.643,1.842,1.842,0,0,1,1.349-.608,1.672,1.672,0,0,1,1.33.456,2.484,2.484,0,0,1,.589,1.662l-.475-.019a1.982,1.982,0,0,0-.446-1.311,1.226,1.226,0,0,0-.969-.313,1.349,1.349,0,0,0-1.007.437,1.93,1.93,0,0,0-.361,1.292l-.475.047Z" transform="translate(-18.189 -8.276)" fill="#436ef6"/>
      <path id="Path_949" data-name="Path 949" d="M380.914,197.8a.677.677,0,0,1-.674-.674l.56-3.447a.67.67,0,0,1,.674-.636h4.682a.677.677,0,0,1,.674.674l.522,3.3a.686.686,0,0,1-.674.712l-5.765.066Zm.551-4.274a.2.2,0,0,0-.2.2l-.56,3.447a.207.207,0,0,0,.2.161l5.765-.066a.2.2,0,0,0,.2-.2l-.522-3.3a.218.218,0,0,0-.2-.237h-4.682Z" transform="translate(-18.106 -8.387)" fill="#436ef6"/>
      <path id="Path_950" data-name="Path 950" d="M277.14,151.1h49.081v55.777H277.14Z" transform="translate(-12.95 -5.84)" fill="#e8eefb"/>
      <path id="Path_952" data-name="Path 952" d="M318.06,203.748a4.777,4.777,0,1,1,4.777,4.758A4.764,4.764,0,0,1,318.06,203.748Z" transform="translate(-14.979 -8.686)" fill="#fff"/>
      <path id="Path_953" data-name="Path 953" d="M322.915,207.026a.163.163,0,0,1-.095-.028c-.123-.085-3.049-2.175-3.02-4a1.762,1.762,0,0,1,.893-1.453,1.363,1.363,0,0,1,1.092-.218,2.2,2.2,0,0,1,1.14.845,2.211,2.211,0,0,1,1.187-.855,1.415,1.415,0,0,1,1.1.228,1.64,1.64,0,0,1,.817,1.349c.047,1.814-2.906,4.008-3.03,4.1a.16.16,0,0,1-.1.028ZM321.5,201.6a1.16,1.16,0,0,0-.627.2,1.426,1.426,0,0,0-.75,1.187c-.029,1.491,2.289,3.3,2.792,3.666.5-.389,2.84-2.279,2.811-3.77a1.309,1.309,0,0,0-.674-1.092,1.1,1.1,0,0,0-.855-.19,2.182,2.182,0,0,0-1.13.912.164.164,0,0,1-.133.076.152.152,0,0,1-.133-.076,2.083,2.083,0,0,0-1.073-.9.92.92,0,0,0-.218-.028Z" transform="translate(-15.067 -8.802)" fill="#0c5df5"/>
      <path id="Path_954" data-name="Path 954" d="M363.918,199.063H346.292a4.882,4.882,0,1,1,0-9.763h17.627a4.882,4.882,0,1,1,0,9.763Z" transform="translate(-16.153 -8.199)" fill="#4388f6"/>
      <path id="Path_955" data-name="Path 955" d="M378.785,271.514a.286.286,0,0,1-.285-.285v-6.714a.286.286,0,0,1,.285-.285.28.28,0,0,1,.285.285v6.714A.286.286,0,0,1,378.785,271.514Z" transform="translate(-18.019 -11.967)" fill="#0c5df5"/>
      <g id="Group_3774" data-name="Group 3774" transform="translate(363.728 254.199)">
        <path id="Path_956" data-name="Path 956" d="M382.22,266.57h4.055l-1.88,2.859-2.175-2.859Z" transform="translate(-381.934 -266.284)" fill="#fff"/>
        <path id="Path_957" data-name="Path 957" d="M384.38,269.689a.283.283,0,0,1-.228-.114l-2.175-2.859a.276.276,0,0,1-.028-.294.274.274,0,0,1,.247-.152h4.055a.258.258,0,0,1,.247.133.279.279,0,0,1-.009.285l-1.88,2.878A.28.28,0,0,1,384.38,269.689Zm-1.615-2.868,1.6,2.1,1.377-2.108h-2.973Z" transform="translate(-381.919 -266.269)" fill="#0c5df5"/>
      </g>
      <path id="Path_958" data-name="Path 958" d="M381.9,286.861a2.436,2.436,0,0,1,.475-1.643,1.8,1.8,0,0,1,1.349-.6,1.667,1.667,0,0,1,1.33.446,2.484,2.484,0,0,1,.589,1.662l-.475-.019a1.982,1.982,0,0,0-.446-1.311,1.261,1.261,0,0,0-.969-.313,1.349,1.349,0,0,0-1.007.437,1.908,1.908,0,0,0-.361,1.282l-.475.047Z" transform="translate(-18.189 -12.992)" fill="#436ef6"/>
      <path id="Path_959" data-name="Path 959" d="M380.914,291.578a.677.677,0,0,1-.674-.674l.56-3.447a.67.67,0,0,1,.674-.636h4.682a.677.677,0,0,1,.674.674l.522,3.305a.686.686,0,0,1-.674.712l-5.765.066Zm.551-4.274a.2.2,0,0,0-.2.2l-.56,3.447a.207.207,0,0,0,.2.161l5.765-.066a.2.2,0,0,0,.2-.2l-.522-3.3a.218.218,0,0,0-.2-.237h-4.682Z" transform="translate(-18.106 -13.103)" fill="#436ef6"/>
      <path id="Path_960" data-name="Path 960" d="M277.14,244.88h49.081v55.777H277.14V244.88Z" transform="translate(-12.921 -10.62)" fill="#e8eefb"/>
      <path id="Path_961" data-name="Path 961" d="M318.06,297.528a4.777,4.777,0,1,1,4.777,4.758A4.764,4.764,0,0,1,318.06,297.528Z" transform="translate(-14.979 -13.402)" fill="#fff"/>
      <path id="Path_962" data-name="Path 962" d="M322.915,300.806a.31.31,0,0,1-.095-.029c-.123-.085-3.049-2.175-3.02-4a1.762,1.762,0,0,1,.893-1.453,1.315,1.315,0,0,1,1.092-.218,2.2,2.2,0,0,1,1.14.845,2.211,2.211,0,0,1,1.187-.855,1.422,1.422,0,0,1,1.1.228,1.663,1.663,0,0,1,.817,1.349c.047,1.814-2.906,4.008-3.03,4.1a.161.161,0,0,1-.1.029Zm-1.415-5.423a1.16,1.16,0,0,0-.627.2,1.426,1.426,0,0,0-.75,1.187c-.029,1.491,2.289,3.3,2.792,3.666.5-.389,2.84-2.279,2.811-3.77a1.309,1.309,0,0,0-.674-1.092,1.1,1.1,0,0,0-.855-.19,2.182,2.182,0,0,0-1.13.912.152.152,0,0,1-.133.076.167.167,0,0,1-.142-.076,2.083,2.083,0,0,0-1.073-.9.921.921,0,0,0-.218-.028Z" transform="translate(-15.067 -13.518)" fill="#0c5df5"/>
      <path id="Path_963" data-name="Path 963" d="M363.918,292.843H346.292a4.882,4.882,0,1,1,0-9.763h17.627a4.882,4.882,0,1,1,0,9.763Z" transform="translate(-16.153 -12.915)" fill="#4388f6"/>
      <rect id="Rectangle_71" data-name="Rectangle 71" width="130.614" height="2.384" transform="translate(255.519 82.179)" fill="#0c65f5"/>
      <g id="Group_3775" data-name="Group 3775" transform="translate(359.351 222.205)">
        <path id="Path_966" data-name="Path 966" d="M379.429,233h41.835c.94,0,1.709,1.425,1.709,3.182v39.261c0,1.757-.76,3.182-1.709,3.182H379.429c-.94,0-1.709-1.425-1.709-3.182V236.182C377.72,234.425,378.48,233,379.429,233Z" transform="translate(-377.331 -232.601)" fill="#fff"/>
        <path id="Path_967" data-name="Path 967" d="M421.244,278.992H379.409c-1.178,0-2.1-1.567-2.1-3.571V236.16c0-2,.921-3.58,2.1-3.58h41.835c1.178,0,2.108,1.567,2.108,3.58v39.261C423.352,277.425,422.431,278.992,421.244,278.992Zm-41.835-45.615c-.617,0-1.311,1.14-1.311,2.783v39.261c0,1.633.693,2.783,1.311,2.783h41.835c.617,0,1.311-1.14,1.311-2.783V236.16c0-1.643-.693-2.783-1.311-2.783Z" transform="translate(-377.31 -232.58)" fill="#0c5df5"/>
      </g>
      <g id="Group_3778" data-name="Group 3778" transform="translate(369.314 232.547)">
        <path id="Path_972" data-name="Path 972" d="M410.925,251.6l-22.727-.095a.4.4,0,1,1,0-.8l22.727.095a.4.4,0,1,1,0,.8Z" transform="translate(-387.8 -243.834)" fill="#0c65f5"/>
        <path id="Path_973" data-name="Path 973" d="M406.079,267.759a.366.366,0,0,1-.085-.01H395.309a.4.4,0,1,1,0-.8h10.684c.085-.066.3-.237.788-.674.475-1.776,5.29-19.9,5.508-20.59a1.521,1.521,0,0,1,1.567-.95l5.043-.228a.378.378,0,0,1,.418.38.4.4,0,0,1-.38.418l-5.081.228s-.674-.019-.807.4c-.218.7-5.47,20.466-5.527,20.666a.355.355,0,0,1-.114.19c-.731.665-1.064.969-1.32.969Z" transform="translate(-388.158 -243.522)" fill="#0c65f5"/>
        <path id="Path_974" data-name="Path 974" d="M407.213,263.9l-15.347-.085a.4.4,0,0,1-.38-.285l-3.656-12.194a.392.392,0,0,1,.266-.494.4.4,0,0,1,.494.266l3.571,11.909,15.053.085a.4.4,0,0,1,0,.8Z" transform="translate(-387.801 -243.84)" fill="#0c65f5"/>
        <path id="Path_975" data-name="Path 975" d="M394.975,263.783a.405.405,0,0,1-.389-.3L391.5,251.3a.4.4,0,0,1,.285-.484.4.4,0,0,1,.484.285l3.087,12.175a.4.4,0,0,1-.285.484c-.029,0-.066.01-.095.01Z" transform="translate(-387.985 -243.839)" fill="#0c65f5"/>
        <path id="Path_976" data-name="Path 976" d="M405.529,263.8h-.066a.4.4,0,0,1-.323-.465l2.118-11.786a.4.4,0,1,1,.788.142l-2.118,11.786a.4.4,0,0,1-.389.332Z" transform="translate(-388.672 -243.86)" fill="#0c65f5"/>
        <path id="Path_977" data-name="Path 977" d="M402.219,263.61a.4.4,0,0,1-.389-.408l.266-11.852a.384.384,0,0,1,.408-.389.4.4,0,0,1,.389.408l-.266,11.852a.4.4,0,0,1-.4.389Z" transform="translate(-388.505 -243.847)" fill="#0c65f5"/>
        <path id="Path_978" data-name="Path 978" d="M398.118,263.848a.4.4,0,0,1-.4-.351l-1.52-12.08a.4.4,0,1,1,.788-.1l1.52,12.08a.4.4,0,0,1-.342.446h-.047Z" transform="translate(-388.222 -243.847)" fill="#0c65f5"/>
        <path id="Path_979" data-name="Path 979" d="M409.865,255.731,389.4,255.6a.4.4,0,1,1,0-.8l20.466.133a.4.4,0,1,1,0,.8Z" transform="translate(-387.86 -244.04)" fill="#0c65f5"/>
        <path id="Path_980" data-name="Path 980" d="M408.717,260.289l-17.779-.161a.4.4,0,1,1,0-.8l17.779.161a.4.4,0,1,1,0,.8Z" transform="translate(-387.938 -244.268)" fill="#0c65f5"/>
        <path id="Path_981" data-name="Path 981" d="M397.619,272.109a1.709,1.709,0,1,1,1.709-1.709A1.714,1.714,0,0,1,397.619,272.109Zm0-2.621a.912.912,0,1,0,.912.912A.912.912,0,0,0,397.619,269.488Z" transform="translate(-388.208 -244.738)" fill="#0c65f5"/>
        <path id="Path_982" data-name="Path 982" d="M404.439,272.109a1.709,1.709,0,1,1,1.709-1.709A1.714,1.714,0,0,1,404.439,272.109Zm0-2.621a.912.912,0,1,0,.912.912A.912.912,0,0,0,404.439,269.488Z" transform="translate(-388.551 -244.738)" fill="#0c65f5"/>
        <path id="Path_983" data-name="Path 983" d="M421.188,246.186a1.358,1.358,0,1,1,1.358-1.358A1.358,1.358,0,0,1,421.188,246.186Zm0-1.918a.561.561,0,0,0-.56.56.56.56,0,1,0,.56-.56Z" transform="translate(-389.411 -243.47)" fill="#0c65f5"/>
      </g>
      <path id="Path_990" data-name="Path 990" d="M455.966,136.238a4.188,4.188,0,1,1-4.188-4.188A4.2,4.2,0,0,1,455.966,136.238Z" transform="translate(-21.493 -5.32)" fill="#caddfb"/>
      <path id="Path_991" data-name="Path 991" d="M424.972,207.263a7.522,7.522,0,1,1,7.522-7.522A7.533,7.533,0,0,1,424.972,207.263Zm0-13.923a2.653,2.653,0,1,0,0-.009Z" transform="translate(-19.977 -8.346)" fill="#fff"/>
      <path id="Path_996" data-name="Path 996" d="M399.835,82.224H266.6c1.092-4.976,5.537-8.433,11.169-8.215H389.027a10.9,10.9,0,0,1,10.808,8.215Z" transform="translate(-12.391 -2.401)" fill="url(#linear-gradient)"/>
      <g id="Group_3781" data-name="Group 3781" transform="translate(367.804 73.385)">
        <path id="Path_997" data-name="Path 997" d="M394.491,80.524h-7.265a1.017,1.017,0,0,1-1.016-1.016V76.9a1.017,1.017,0,0,1,1.016-1.016h7.265a1.017,1.017,0,0,1,1.016,1.016v2.612A1.017,1.017,0,0,1,394.491,80.524ZM387.226,76.4a.507.507,0,0,0-.5.5v2.612a.507.507,0,0,0,.5.5h7.265a.507.507,0,0,0,.5-.5V76.906a.507.507,0,0,0-.5-.5Z" transform="translate(-386.21 -75.88)" fill="#fff"/>
        <path id="Path_998" data-name="Path 998" d="M392.814,79.716h-5.185a.6.6,0,0,1-.589-.608v-1.7a.6.6,0,0,1,.589-.608h3.343Z" transform="translate(-386.252 -75.926)" fill="#fff"/>
        <path id="Path_999" data-name="Path 999" d="M396.528,77.94v.579a.183.183,0,0,1-.18.19h-.608V77.75h.608a.183.183,0,0,1,.18.19Z" transform="translate(-386.689 -75.974)" fill="#fff"/>
      </g>
      <g id="Group_3782" data-name="Group 3782" transform="translate(263.544 73.689)">
        <path id="Path_1000" data-name="Path 1000" d="M282.907,77.482l-.712.75a3.637,3.637,0,0,0-5.043.038l-.722-.741a4.669,4.669,0,0,1,6.477-.047Z" transform="translate(-276.43 -76.2)" fill="#fff"/>
        <path id="Path_1001" data-name="Path 1001" d="M281.9,78.684l-.712.76a2.087,2.087,0,0,0-2.906.019l-.731-.75a3.137,3.137,0,0,1,2.184-.893,3.1,3.1,0,0,1,2.156.855Z" transform="translate(-276.486 -76.281)" fill="#fff"/>
        <path id="Path_1002" data-name="Path 1002" d="M280.875,79.907l-1.073,1.13-1.092-1.111a1.56,1.56,0,0,1,1.092-.446A1.523,1.523,0,0,1,280.875,79.907Z" transform="translate(-276.545 -76.365)" fill="#fff"/>
      </g>
      <g id="Group_3783" data-name="Group 3783" transform="translate(272.51 73.328)">
        <rect id="Rectangle_74" data-name="Rectangle 74" width="1.425" height="5.033" transform="translate(6.002)" fill="#fff"/>
        <rect id="Rectangle_75" data-name="Rectangle 75" width="1.425" height="3.922" transform="translate(3.894 1.121)" fill="#fff"/>
        <rect id="Rectangle_76" data-name="Rectangle 76" width="1.425" height="2.973" transform="translate(1.928 2.061)" fill="#fff"/>
        <rect id="Rectangle_77" data-name="Rectangle 77" width="1.425" height="1.491" transform="translate(0 3.552)" fill="#fff"/>
      </g>
      <g id="Group_3784" data-name="Group 3784" transform="translate(120.366 83.708)">
        <path id="Path_1003" data-name="Path 1003" d="M97.51,180.1h82.217a3.651,3.651,0,0,1,3.59,3.713v99.131a3.651,3.651,0,0,1-3.59,3.713H97.51a3.651,3.651,0,0,1-3.59-3.713V183.813A3.651,3.651,0,0,1,97.51,180.1Z" transform="translate(-93.521 -179.701)" fill="#fff"/>
        <path id="Path_1004" data-name="Path 1004" d="M179.705,287.035H97.489a4.053,4.053,0,0,1-3.989-4.112V183.792a4.053,4.053,0,0,1,3.989-4.112h82.217a4.053,4.053,0,0,1,3.989,4.112v99.131a4.053,4.053,0,0,1-3.989,4.112ZM97.489,180.478a3.263,3.263,0,0,0-3.191,3.314v99.131a3.256,3.256,0,0,0,3.191,3.314h82.217a3.263,3.263,0,0,0,3.191-3.314V183.792a3.256,3.256,0,0,0-3.191-3.314H97.489Z" transform="translate(-93.5 -179.68)" fill="#0c5df5"/>
        <g id="App_Development" data-name="App Development" transform="translate(-1184.329 21.197)">
          <g id="Group_3832" data-name="Group 3832" transform="translate(1210.81)">
            <g id="Group_3830" data-name="Group 3830" transform="translate(0)">
              <path id="Path_1203" data-name="Path 1203" d="M1254.941,0H1280.4a5,5,0,0,1,5,5V59.96a5,5,0,0,1-5,5h-25.456a5,5,0,0,1-5-5V5A5,5,0,0,1,1254.941,0Z" transform="translate(-1249.142)" fill="url(#linear-gradient-2)"/>
              <path id="Path_1204" data-name="Path 1204" d="M1357.561,78.7v54.959a3.478,3.478,0,0,1-3.468,3.467h-25.456a3.478,3.478,0,0,1-3.467-3.467V78.7a3.478,3.478,0,0,1,3.467-3.467h3.608a.578.578,0,0,1,.578.578v.628a2.028,2.028,0,0,0,2.028,2.029h13.028a2.029,2.029,0,0,0,2.029-2.029v-.628a.578.578,0,0,1,.578-.578h3.607a3.478,3.478,0,0,1,3.468,3.467Z" transform="translate(-1322.839 -73.697)" fill="url(#linear-gradient-3)"/>
              <g id="Group_3828" data-name="Group 3828" transform="translate(15.131 1.847)">
                <rect id="Rectangle_151" data-name="Rectangle 151" width="4.969" height="1.011" rx="0.505" transform="translate(0 0.07)" fill="#fff"/>
                <path id="Path_1205" data-name="Path 1205" d="M2231.161,91.216a.576.576,0,1,1-.575-.576A.575.575,0,0,1,2231.161,91.216Z" transform="translate(-2224.371 -90.64)" fill="#fff"/>
              </g>
              <path id="Path_1206" data-name="Path 1206" d="M2990.827,702.293v7.812a.512.512,0,0,1-.512.512h-.465V701.78h.465a.512.512,0,0,1,.512.512Z" transform="translate(-2953.595 -687.479)" fill="#78a7ff"/>
              <g id="Group_3829" data-name="Group 3829" transform="translate(0 9.456)">
                <path id="Path_1207" data-name="Path 1207" d="M1211.607,464.01v3.1h-.618a.179.179,0,0,1-.179-.179v-2.743a.179.179,0,0,1,.179-.179Z" transform="translate(-1210.81 -464.01)" fill="#78a7ff"/>
                <path id="Path_1208" data-name="Path 1208" d="M1211.607,717.11v4.739h-.618a.179.179,0,0,1-.179-.179v-4.38a.179.179,0,0,1,.179-.179Z" transform="translate(-1210.81 -711.952)" fill="#78a7ff"/>
                <path id="Path_1209" data-name="Path 1209" d="M1211.607,1043.79v4.739h-.618a.179.179,0,0,1-.179-.179v-4.38a.179.179,0,0,1,.179-.179Z" transform="translate(-1210.81 -1031.975)" fill="#78a7ff"/>
              </g>
            </g>
          </g>
        </g>
      </g>
      <g id="Group_3789" data-name="Group 3789" transform="translate(434.474 192.889)">
        <path id="Path_1014" data-name="Path 1014" d="M588.16,335.949,607.6,373.377l2.916-5.242s-3.3-10.238-4.226-13.875-8.263-22.043-9.193-23.429-8.937,5.119-8.937,5.119Z" transform="translate(-494.347 -208.195)" fill="#feb08a"/>
        <path id="Path_1015" data-name="Path 1015" d="M617.647,378.173l-1.662-5.632-4.891-5.071-5.062,5.945s1.681,1.766.01,5.214-5.632,7.1-5.632,7.1l10.931-4.549,1.007-5.917,2.251-1.69,2.089,4.758.95-.161Z" transform="translate(-494.963 -210.047)" fill="#ffcf5b"/>
        <path id="Path_1016" data-name="Path 1016" d="M551.22,336.741l4.825,41.9,4.6-3.856s.56-10.741,1-14.474.142-23.543-.237-25.167-10.171,1.6-10.171,1.6Z" transform="translate(-492.489 -208.399)" fill="#feb08a"/>
        <path id="Path_1017" data-name="Path 1017" d="M563.474,386.757l.456-5.85-2.764-6.477-6.847,3.751s.94,2.251-1.852,4.872-7.8,4.625-7.8,4.625l11.833-.361,3.049-5.166,2.707-.769.256,5.185.94.19Z" transform="translate(-492.16 -210.397)" fill="#ffcf5b"/>
        <g id="Group_3787" data-name="Group 3787" transform="translate(0 46.083)">
          <path id="Path_1018" data-name="Path 1018" d="M494.746,253.6s3.438,2.042,3.96,2.289,2.175,1.2,2.175,1.2l3.628,8.832s-1.909-.389-2.773-.456a4.686,4.686,0,0,1-2.384-.408c-.646-.456-2.954-1.9-3.3-2.061s-2.336-.731-2.5-.912-1.567-1.282-1.415-2.156c.038-.209-1.558-.446-1.3-1.482s.893-.741.893-.741l-.389-.5s-1.947-.18-1.966-.893a1.145,1.145,0,0,1,.712-1.007l4.673-1.69Z" transform="translate(-489.38 -250.404)" fill="#f1a57e"/>
          <g id="Group_3786" data-name="Group 3786" transform="translate(0.157)">
            <path id="Path_1019" data-name="Path 1019" d="M494.346,250.268l-4.73,3.438a.18.18,0,0,0-.038.247l7.132,9.811a.18.18,0,0,0,.247.038l4.73-3.438a.18.18,0,0,0,.038-.247l-7.132-9.811a.18.18,0,0,0-.247-.038Z" transform="translate(-489.545 -250.235)" fill="#0c5df5"/>
            <g id="Group_3785" data-name="Group 3785" transform="translate(0.202 0.198)">
              <path id="Path_1020" data-name="Path 1020" d="M494.321,250.717l-4.255,3.134c-.123.085-.057.38-.057.38l6.714,9.231a.263.263,0,0,0,.38.057l4.255-3.134a.263.263,0,0,0,.057-.38l-6.714-9.231A.263.263,0,0,0,494.321,250.717Z" transform="translate(-489.77 -250.455)" fill="#e8eefb"/>
              <path id="Path_1021" data-name="Path 1021" d="M496.531,263.565l-6.714-9.231a.529.529,0,0,1-.038-.076c-.019-.1-.076-.437.142-.589l4.255-3.134a.482.482,0,0,1,.361-.085.476.476,0,0,1,.313.19l6.714,9.222a.469.469,0,0,1,.085.351.476.476,0,0,1-.19.313L497.2,263.66a.5.5,0,0,1-.275.085.469.469,0,0,1-.389-.2Zm-2.108-12.7-4.236,3.115a.749.749,0,0,0,0,.152l6.686,9.193s.066.038.1.019l4.255-3.134.029-.047a.167.167,0,0,0-.01-.057l-6.714-9.231a.155.155,0,0,0-.057-.029.057.057,0,0,0-.038.009Z" transform="translate(-489.758 -250.444)" fill="#0c5df5"/>
            </g>
            <path id="Path_1022" data-name="Path 1022" d="M492.321,252.04s-.532.389-.541.389c.18.237.456.456.665.294S492.473,252.1,492.321,252.04Z" transform="translate(-489.658 -250.326)" fill="#0c5df5"/>
            <path id="Path_1023" data-name="Path 1023" d="M492.357,252.4a.136.136,0,1,0-.029.19A.137.137,0,0,0,492.357,252.4Z" transform="translate(-489.674 -250.341)" fill="#0c0c0c"/>
          </g>
          <path id="Path_1024" data-name="Path 1024" d="M510.015,263.029l-3.96-2.023-4.017-3.333-1.026-.513-3.087.313-1.785,2.4s.313.95,2.916-.38c.8-.408,1.823,2.374,1.823,2.374l2.64,1.719.551,2.507,3.78,2.849,2.175-5.907Z" transform="translate(-489.72 -250.583)" fill="#feb08a"/>
        </g>
        <path id="Path_1025" data-name="Path 1025" d="M552.914,219.22l5.47,9.421s.086,2.688-4.217,3.229-6.278-.9-6.278-.9l-.18-5.736Z" transform="translate(-492.313 -202.592)" fill="#feb08a"/>
        <path id="Path_1026" data-name="Path 1026" d="M550.681,215.533a2.722,2.722,0,0,1,3.134-2.061c2.6.361-3.049,12.194-6.638,13.457s-7.351-5.385-8.433-8.158-3.144-7.351,1.168-8.519,10.76,5.29,10.76,5.29Z" transform="translate(-491.789 -202.134)" fill="#feb08a"/>
        <path id="Path_1027" data-name="Path 1027" d="M569.145,271.549l-22.717,2.716-1.747,61.56s.779,3.694,15.727,4.464,25.633-1.168,31.654-6.8,11.074-15.927,11.074-15.927l-33.99-46.023Z" transform="translate(-492.161 -205.223)" fill="#273976"/>
        <path id="Path_1028" data-name="Path 1028" d="M555.682,228.809s-2.4,3.932-4.806,3.827a19.24,19.24,0,0,1-5.565-1.529,61.494,61.494,0,0,0-7.427,7.427c-2.621,3.381-5.375,11.425-7.341,14.265s-1.083,9.013-6.99,5.955-5.917-2.631-7.664,1.52c-.589,1.387-8.68-2.612-8.68-2.612l-4.549,6.316s10.247,5.508,11.036,6.743c4.046,6.316,2.887,7.018,8.68,6.259s8.851,1.092,11.254-3.058,8.4-12.232,8.4-12.232l2.726,11.359s20.428-.541,22.613-3.609,2.84-2.184,1.852-6a10.372,10.372,0,0,1,1.2-7.322l4.929,3.191s2.517.978,3.391,7.636,2.336,3.115,6.487,5.4c2.849,1.577,5.48,7.569,5.48,7.569l6.192-1.083s-2.849-7.056-2.45-7.275c3.277-1.861,4.673-1.064,2.165-6.629s-5.869-6.192-9.041-9.8-13.543-15.841-13.543-15.841a58.912,58.912,0,0,0-6.335-6.116c-2.184-1.529-12.014-4.369-12.014-4.369Z" transform="translate(-490.047 -203.074)" fill="#3cc360"/>
        <path id="Path_1029" data-name="Path 1029" d="M550.249,216.251c-1.766-.247-1.453-2.146-4.179-3.846-1.691-1.054-8.462,1.918-9.165-.807s2.783-8.168,7.3-9.1c6.781-1.4,8.12,4.521,12.764,7.018,4.464,2.393,4.207.769,8.234,3.485s8.357,8.158,7.854,11.681-1.311,9.07-1.311,9.07-3.324-3.324-6.553-4.027-7.455-1.814-7.455-1.814L552.67,219.5s1.975-4.578.465-6.088-1.13,3.1-2.9,2.84Z" transform="translate(-491.765 -201.741)" fill="#283978"/>
        <path id="Path_1030" data-name="Path 1030" d="M536.926,212.895s.988,4.122,1.51,5.337a53.256,53.256,0,0,0,3.362,6.031c.636.807,3.713,3.362,4.872,2.783s.817,3.77.817,3.77-4.464,2.612-5.508,4-2.146,2.669-2.146,2.669-4.464-3.77-5.451-9.108-.351-14.094-.351-14.094.817-3.3,1.795-3.713,1.1,2.317,1.1,2.317Z" transform="translate(-491.615 -202.155)" fill="#283978"/>
        <path id="Path_1031" data-name="Path 1031" d="M573.917,218.1a.382.382,0,0,1-.323-.18,21.323,21.323,0,0,0-5.917-6.173,8.858,8.858,0,0,0-3.713-1.121c-2.384-.342-5.081-.722-9.089-4.654-5.309-5.195-9-3.1-9.155-3a.378.378,0,0,1-.522-.133.392.392,0,0,1,.123-.522c.171-.1,4.331-2.526,10.076,3.106,3.837,3.751,6.4,4.122,8.671,4.445a9.529,9.529,0,0,1,4.008,1.225,21.478,21.478,0,0,1,6.164,6.43.386.386,0,0,1-.133.522.374.374,0,0,1-.2.057Z" transform="translate(-492.184 -201.712)" fill="#283978"/>
        <path id="Path_1032" data-name="Path 1032" d="M584.9,271.375a2.738,2.738,0,0,1-2.241-1.054,2.818,2.818,0,0,1-.294-2.2,18.11,18.11,0,0,1-1.529-5.66,4.627,4.627,0,0,1,.988-3.077.863.863,0,0,0-.361-.275,2.192,2.192,0,0,0-1.709.38c-2.441,1.377-5.736-1.577-5.879-1.7l-7.778-7.579a.376.376,0,1,1,.532-.532l7.769,7.569s3.02,2.707,4.986,1.6a2.794,2.794,0,0,1,2.365-.427,1.6,1.6,0,0,1,.9.931.375.375,0,0,1-.123.408,3.534,3.534,0,0,0-.931,2.716,18.238,18.238,0,0,0,1.52,5.47.37.37,0,0,1,.019.266,2.232,2.232,0,0,0,.161,1.7,2.019,2.019,0,0,0,1.633.722.368.368,0,0,1,.351.4.376.376,0,0,1-.38.351Z" transform="translate(-493.232 -204.118)" fill="#1d1119"/>
        <path id="Path_1033" data-name="Path 1033" d="M544.01,262.646a.387.387,0,0,1-.342-.218c-.019-.047-2.241-4.882-3.011-6.7-.665-1.586.171-3.324,1.14-5.347.266-.56.551-1.14.807-1.747a17.655,17.655,0,0,0,1.035-6.249.375.375,0,1,1,.75-.019,18.206,18.206,0,0,1-1.1,6.563c-.266.617-.551,1.206-.817,1.776-.883,1.852-1.653,3.447-1.121,4.72.769,1.814,2.982,6.638,3,6.686a.383.383,0,0,1-.19.5.447.447,0,0,1-.161.038Z" transform="translate(-491.946 -203.737)" fill="#1d1119"/>
        <path id="Path_1034" data-name="Path 1034" d="M548.41,227.58a.376.376,0,0,1-.361-.266.385.385,0,0,1,.247-.475,4.8,4.8,0,0,0,3.523-3.647.37.37,0,0,1,.427-.323.377.377,0,0,1,.323.427,5.508,5.508,0,0,1-4.055,4.264.477.477,0,0,1-.114.019Z" transform="translate(-492.329 -202.775)" fill="#1d1119"/>
        <path id="Path_1035" data-name="Path 1035" d="M516.74,271.739a.373.373,0,0,1-.38-.37c0-.237-.142-5.746.988-7.94.75-1.472,1.387-2.346,1.776-2.46a.349.349,0,0,1,.171-.01,57.576,57.576,0,0,1,6.088,1.387,2.707,2.707,0,0,0,2.536-.247,1.961,1.961,0,0,1,2.555.209c2.46,1.757,1.3,3.447,1.282,3.466a.391.391,0,0,1-.532.095.379.379,0,0,1-.095-.522c.029-.047.712-1.121-1.1-2.412-.9-.646-1.178-.484-1.738-.161a3.484,3.484,0,0,1-3.125.313,58.6,58.6,0,0,0-5.86-1.349,8.357,8.357,0,0,0-1.282,2.042c-1.035,2.023-.9,7.512-.9,7.569a.381.381,0,0,1-.37.389Z" transform="translate(-490.736 -204.691)" fill="#1d1119"/>
        <path id="Path_1036" data-name="Path 1036" d="M514.13,264.389a.355.355,0,0,1-.143-.029l-7.17-2.849a.382.382,0,0,1-.209-.494.374.374,0,0,1,.494-.209l7.17,2.849a.382.382,0,0,1,.209.494.368.368,0,0,1-.351.237Z" transform="translate(-490.245 -204.682)" fill="#1d1119"/>
        <path id="Path_1037" data-name="Path 1037" d="M513.121,266.349a.43.43,0,0,1-.152-.028l-6.582-2.849a.377.377,0,0,1,.294-.693l6.582,2.849a.376.376,0,0,1,.2.494.383.383,0,0,1-.351.228Z" transform="translate(-490.223 -204.781)" fill="#1d1119"/>
        <path id="Path_1038" data-name="Path 1038" d="M512.112,268.3a.322.322,0,0,1-.18-.047l-6.192-3.239a.385.385,0,0,1-.161-.513.38.38,0,0,1,.513-.161l6.192,3.239a.385.385,0,0,1,.161.513.366.366,0,0,1-.332.2Z" transform="translate(-490.192 -204.859)" fill="#1d1119"/>
        <path id="Path_1039" data-name="Path 1039" d="M599.811,279.89a.383.383,0,0,1-.351-.228l-2.061-4.91a.373.373,0,0,1,.2-.494.381.381,0,0,1,.494.2l2.061,4.91a.373.373,0,0,1-.2.494A.381.381,0,0,1,599.811,279.89Z" transform="translate(-494.81 -205.358)" fill="#1d1119"/>
        <path id="Path_1040" data-name="Path 1040" d="M597.461,280.316a.39.39,0,0,1-.361-.247l-1.672-4.616a.377.377,0,0,1,.228-.484.37.37,0,0,1,.484.228l1.672,4.616a.377.377,0,0,1-.228.484.324.324,0,0,1-.133.019Z" transform="translate(-494.712 -205.394)" fill="#1d1119"/>
        <path id="Path_1041" data-name="Path 1041" d="M595.975,280.625a.389.389,0,0,1-.342-.209l-2.355-4.616a.38.38,0,1,1,.674-.351l2.355,4.616a.385.385,0,0,1-.161.513.372.372,0,0,1-.171.038Z" transform="translate(-494.602 -205.41)" fill="#1d1119"/>
        <g id="Group_3788" data-name="Group 3788" transform="translate(74.866 86.19)">
          <path id="Path_1042" data-name="Path 1042" d="M615.861,336.83l-.361,5.157.541.408,7.332-1.273Z" transform="translate(-570.588 -294.697)" fill="#9f9af6"/>
          <path id="Path_1043" data-name="Path 1043" d="M636.46,318.265l2.374,3.751.579.009,4.426-4.606Z" transform="translate(-571.642 -293.721)" fill="#fdda64"/>
          <path id="Path_1044" data-name="Path 1044" d="M643.037,316.253l-21.1-22.043-1.425,1.472,15.338,22.195Z" transform="translate(-570.84 -292.554)" fill="#c19311"/>
          <path id="Path_1045" data-name="Path 1045" d="M609.673,303.971a.2.2,0,0,1-.18-.1c-.171-.275-4.207-6.885-3.438-9.9a1.84,1.84,0,0,1,.893-1.216c3.106-1.747,10.152,5,10.447,5.29a.215.215,0,0,1-.3.3c-.066-.066-7.1-6.819-9.943-5.223a1.423,1.423,0,0,0-.684.95c-.731,2.83,3.343,9.5,3.381,9.564a.212.212,0,0,1-.066.294.253.253,0,0,1-.114.028Z" transform="translate(-570.108 -292.466)" fill="#130c5c"/>
          <path id="Path_1046" data-name="Path 1046" d="M603.34,306.664l16.468-13.154s.285.427.788,1.168c3.391,5.033,16.6,24.7,17.161,26.146.019-.1-18.728,10.865-18.728,10.865l-15.68-25.025Z" transform="translate(-569.977 -292.518)" fill="#ffcf5b"/>
          <path id="Path_1047" data-name="Path 1047" d="M616.415,299.637a.517.517,0,1,1,.722.114A.517.517,0,0,1,616.415,299.637Z" transform="translate(-570.629 -292.785)" fill="#c19311"/>
          <path id="Path_1048" data-name="Path 1048" d="M608.435,305.5a.517.517,0,1,1,.722.114A.517.517,0,0,1,608.435,305.5Z" transform="translate(-570.228 -293.08)" fill="#3c41c7"/>
          <path id="Path_1049" data-name="Path 1049" d="M608.656,304.724a.218.218,0,0,1-.19-.123c-.2-.4-4.768-9.858-1.624-11.624,3.115-1.747,9.288,5.518,9.554,5.831a.216.216,0,1,1-.332.275c-.067-.076-6.211-7.313-9.013-5.727-2.317,1.3.513,8.424,1.795,11.064a.216.216,0,0,1-.095.285A.172.172,0,0,1,608.656,304.724Z" transform="translate(-570.097 -292.478)" fill="#130c5c"/>
          <path id="Path_1050" data-name="Path 1050" d="M586.927,328.31,583.84,331.5l.133.57,5.518,3.21Z" transform="translate(-568.996 -294.268)" fill="#6a90f6"/>
          <path id="Path_1051" data-name="Path 1051" d="M589.617,334.234l16.44-25.709-1.766-1.035-17.95,20.134Z" transform="translate(-569.122 -293.221)" fill="#3858d8"/>
          <path id="Path_1052" data-name="Path 1052" d="M601.558,305.13a.345.345,0,0,1-.1-.029.215.215,0,0,1-.076-.294c.047-.085,4.938-8.519,2.726-10.893a1.437,1.437,0,0,0-1.083-.446c-2.973,0-8.443,5.489-8.5,5.546a.215.215,0,0,1-.3-.3c.228-.237,5.66-5.67,8.775-5.67a1.846,1.846,0,0,1,1.434.579c2.431,2.6-2.46,11.045-2.669,11.406a.215.215,0,0,1-.18.1Z" transform="translate(-569.514 -292.495)" fill="#130c5c"/>
          <path id="Path_1053" data-name="Path 1053" d="M588.828,293.54l16.667,12.9s-.342.38-.95,1.035c-4.093,4.483-20.1,21.967-21.359,22.841.114,0-14.977-15.632-14.977-15.632l20.618-21.141Z" transform="translate(-568.21 -292.52)" fill="#436df6"/>
          <path id="Path_1054" data-name="Path 1054" d="M592.6,298.278a.6.6,0,1,1,.6.6A.6.6,0,0,1,592.6,298.278Z" transform="translate(-569.436 -292.728)" fill="#3858d8"/>
          <path id="Path_1055" data-name="Path 1055" d="M600.464,304.43a.513.513,0,1,1,.066.722A.512.512,0,0,1,600.464,304.43Z" transform="translate(-569.826 -293.058)" fill="#c19311"/>
          <path id="Path_1056" data-name="Path 1056" d="M600.558,304.328a.327.327,0,0,1-.123-.038.223.223,0,0,1-.047-.3c.057-.076,5.641-7.75,3.438-10.114-1.814-1.947-8.063,2.488-10.323,4.359a.216.216,0,1,1-.275-.332c.342-.285,8.462-6.952,10.912-4.321s-3.163,10.333-3.409,10.665A.2.2,0,0,1,600.558,304.328Z" transform="translate(-569.464 -292.491)" fill="#130c5c"/>
          <path id="Path_1057" data-name="Path 1057" d="M623.373,339.443V303.42L616.4,304.6,615.5,336Z" transform="translate(-570.588 -293.017)" fill="#3c41c7"/>
          <path id="Path_1058" data-name="Path 1058" d="M611.469,304.964a.213.213,0,0,1-.209-.18c-.019-.114-1.985-11.33-5.765-11.786a1.72,1.72,0,0,0-1.33.427c-2.65,2.165-3.428,11.245-3.438,11.34a.214.214,0,0,1-.427-.029c.029-.38.8-9.355,3.59-11.634a2.166,2.166,0,0,1,1.653-.522c4.093.494,6.05,11.662,6.135,12.137a.214.214,0,0,1-.18.247h-.038Z" transform="translate(-569.824 -292.471)" fill="#130c5c"/>
          <path id="Path_1059" data-name="Path 1059" d="M592.206,303.657l24.531-1s-.029.6-.066,1.643c-.294,7.066-1.453,34.646-1.928,36.374.095-.095-25.072-2.716-25.072-2.716l2.536-34.3Z" transform="translate(-569.289 -292.979)" fill="#7567f6"/>
          <path id="Path_1060" data-name="Path 1060" d="M609.91,305.488a.6.6,0,1,1,.6.6A.6.6,0,0,1,609.91,305.488Z" transform="translate(-570.307 -293.091)" fill="#3c41c7"/>
          <path id="Path_1061" data-name="Path 1061" d="M598.38,305.488a.6.6,0,1,1,.6.6A.6.6,0,0,1,598.38,305.488Z" transform="translate(-569.727 -293.091)" fill="#3c41c7"/>
          <path id="Path_1062" data-name="Path 1062" d="M599,304.97a.225.225,0,0,1-.209-.256c.095-.513,2.317-12.489,6.448-12,4.112.5,4.891,11.558,4.919,12.023a.227.227,0,0,1-.2.228.22.22,0,0,1-.228-.2c0-.114-.779-11.169-4.54-11.624-.067,0-.143-.01-.209-.01-3.609,0-5.755,11.549-5.774,11.662A.221.221,0,0,1,599,304.97Z" transform="translate(-569.748 -292.477)" fill="#130c5c"/>
        </g>
        <path id="Path_1063" data-name="Path 1063" d="M604.95,297.3c.75-.266,2.45-5.4,2.479-6.021.076-1.985-4.54-5.632-4.863-6.268s-1.349-3.457-1.349-3.457l-5.138.893,2.336,3.856a35.762,35.762,0,0,1,.684,4.093c-.038.722,1.529,3.837,1.529,3.837s-1.52-.342-1.52.4,1.88,1.254,1.88,1.254,1.035,2.27,1.9,2.365.807-1.33.807-1.33.959.475,1.263.37Zm-1.985-3.039-.361-1.738s.779-.7,1.1-.522c.4.228.275,2.517.275,2.517l-1.007-.266Z" transform="translate(-494.745 -205.727)" fill="#feb08a"/>
      </g>
      <g id="Group_3790" data-name="Group 3790" transform="translate(383.823 144.119)">
        <path id="Path_1064" data-name="Path 1064" d="M444.832,150.82h59.8a2.835,2.835,0,0,1,2.612,3.02v80.6a2.835,2.835,0,0,1-2.612,3.02h-59.8a2.835,2.835,0,0,1-2.612-3.02v-80.6A2.835,2.835,0,0,1,444.832,150.82Z" transform="translate(-441.783 -150.383)" fill="#fff"/>
        <path id="Path_1065" data-name="Path 1065" d="M504.612,237.876h-59.8a3.274,3.274,0,0,1-3.049-3.457v-80.6a3.274,3.274,0,0,1,3.049-3.457h59.8a3.274,3.274,0,0,1,3.049,3.457v80.6A3.274,3.274,0,0,1,504.612,237.876Zm-59.8-86.642a2.41,2.41,0,0,0-2.175,2.583v80.6A2.41,2.41,0,0,0,444.809,237h59.8a2.41,2.41,0,0,0,2.175-2.583v-80.6a2.41,2.41,0,0,0-2.175-2.583Z" transform="translate(-441.76 -150.36)" fill="#0c5df5"/>
        <g id="_4637195" data-name="4637195" transform="translate(-70.484 -11.027)">
          <g id="Group_3821" data-name="Group 3821" transform="translate(89.71 26.66)">
            <g id="Group_3820" data-name="Group 3820" transform="translate(0 0)">
              <g id="Group_3818" data-name="Group 3818">
                <path id="Path_1188" data-name="Path 1188" d="M112.983,82.911,93.871,82.9a4.163,4.163,0,0,1-4.161-4.164l.01-47.913a4.162,4.162,0,0,1,4.166-4.162L113,26.672a4.163,4.163,0,0,1,4.161,4.164l-.01,47.913A4.162,4.162,0,0,1,112.983,82.911Z" transform="translate(-89.71 -26.66)" fill="#263238"/>
                <path id="Path_1189" data-name="Path 1189" d="M119.319,36.87h-3.7a.917.917,0,0,0-.9.939v.672a.921.921,0,0,1-.9.94l-7.223,0a.921.921,0,0,1-.9-.94V37.8a.92.92,0,0,0-.9-.94h-1.3l-3.244,0a2.916,2.916,0,0,0-2.917,2.916L97.32,86.542a2.916,2.916,0,0,0,2.914,2.916l19.074.012a2.916,2.916,0,0,0,2.917-2.916l.008-46.766a2.916,2.916,0,0,0-2.914-2.916Z" transform="translate(-96.054 -35.162)" fill="#fabb06"/>
              </g>
            </g>
          </g>
        </g>
      </g>
      <path id="Path_1066" data-name="Path 1066" d="M491.78,230.236a7.826,7.826,0,1,1,7.826,7.816A7.819,7.819,0,0,1,491.78,230.236Z" transform="translate(-23.715 -9.864)" fill="#c2d5fb"/>
      <g id="Group_3791" data-name="Group 3791" transform="translate(470.8 216.137)">
        <path id="Path_1068" data-name="Path 1068" d="M499.783,228.122s-1.491-2.6-3.514-1.273c-4.435,2.916,3.485,8.519,3.485,8.519s7.788-5.755,3.647-8.519C501.368,225.491,499.783,228.122,499.783,228.122Z" transform="translate(-494.673 -226.205)" fill="#fff"/>
        <path id="Path_1069" data-name="Path 1069" d="M499.741,235.6a.256.256,0,0,1-.142-.047c-.2-.142-4.986-3.571-4.939-6.563a2.846,2.846,0,0,1,1.463-2.374,2.246,2.246,0,0,1,1.785-.361,3.507,3.507,0,0,1,1.871,1.406,3.69,3.69,0,0,1,1.956-1.415,2.229,2.229,0,0,1,1.795.38,2.7,2.7,0,0,1,1.33,2.2c.066,2.973-4.758,6.572-4.958,6.724a.283.283,0,0,1-.142.047Zm-2.327-8.9a1.9,1.9,0,0,0-1.026.332A2.347,2.347,0,0,0,495.154,229c-.047,2.46,3.78,5.442,4.578,6.04.8-.627,4.673-3.751,4.616-6.2a2.189,2.189,0,0,0-1.1-1.8,1.754,1.754,0,0,0-1.406-.3,3.508,3.508,0,0,0-1.852,1.51.255.255,0,0,1-.437,0,3.383,3.383,0,0,0-1.766-1.482,1.65,1.65,0,0,0-.37-.047Z" transform="translate(-494.66 -226.191)" fill="#0c5df5"/>
      </g>
      <path id="Path_1070" data-name="Path 1070" d="M167.77,279.706a7.826,7.826,0,1,1,7.826,7.816A7.819,7.819,0,0,1,167.77,279.706Z" transform="translate(-7.421 -12.352)" fill="#c2d5fb"/>
      <g id="Group_3792" data-name="Group 3792" transform="translate(163.074 263.12)">
        <path id="Path_1071" data-name="Path 1071" d="M175.763,277.592s-1.491-2.6-3.514-1.273c-4.435,2.916,3.485,8.519,3.485,8.519s7.788-5.755,3.647-8.519C177.349,274.961,175.763,277.592,175.763,277.592Z" transform="translate(-170.653 -275.675)" fill="#fff"/>
        <path id="Path_1072" data-name="Path 1072" d="M175.721,285.072a.256.256,0,0,1-.142-.047c-.2-.142-4.986-3.571-4.938-6.562a2.846,2.846,0,0,1,1.463-2.374,2.246,2.246,0,0,1,1.785-.361,3.507,3.507,0,0,1,1.871,1.406,3.69,3.69,0,0,1,1.956-1.415,2.229,2.229,0,0,1,1.795.38,2.7,2.7,0,0,1,1.33,2.2c.066,2.973-4.758,6.572-4.957,6.724a.283.283,0,0,1-.142.047Zm-2.327-8.9a1.9,1.9,0,0,0-1.026.332,2.347,2.347,0,0,0-1.235,1.966c-.047,2.46,3.78,5.442,4.578,6.04.8-.627,4.673-3.751,4.616-6.2a2.189,2.189,0,0,0-1.1-1.8,1.754,1.754,0,0,0-1.406-.3,3.464,3.464,0,0,0-1.852,1.51.255.255,0,0,1-.437,0,3.383,3.383,0,0,0-1.766-1.482,1.649,1.649,0,0,0-.37-.047Z" transform="translate(-170.64 -275.661)" fill="#0c5df5"/>
      </g>
      <g id="Group_3799" data-name="Group 3799" transform="translate(175.162 187.472)">
        <path id="Path_1073" data-name="Path 1073" d="M207.864,368.535,203.5,383.474l-5-2.346,2.384-16.468Z" transform="translate(-195.928 -204.489)" fill="#ff9a67"/>
        <path id="Path_1074" data-name="Path 1074" d="M198.155,380.35c-.6-.047-2.792,3.523-2.289,5.5.294,1.159,2.308.817,4.9,1.121s4.682,1.263,6.468,1.225,7.408-.617,7.408-.617l-.19-1.5s-2.783-.057-3.913-.855-5.831-4.416-5.831-4.416a10.613,10.613,0,0,1-2.726,1.7c-1.32.57-1.482.427-2.1.1-1.111-.6-.779-2.175-1.738-2.251Z" transform="translate(-195.792 -205.278)" fill="#0c0c0c"/>
        <path id="Path_1075" data-name="Path 1075" d="M246.755,365.44,247.23,381l-5.489-.674-2.821-16.4,7.835,1.52Z" transform="translate(-197.96 -204.452)" fill="#ff9a67"/>
        <path id="Path_1076" data-name="Path 1076" d="M240.611,378.314c-.6.038-2.26,3.884-1.472,5.774.456,1.111,2.393.475,5,.4s4.815.589,6.572.285,7.246-1.672,7.246-1.672l-.4-1.453s-2.764.342-4-.285-6.4-3.533-6.4-3.533a10.438,10.438,0,0,1-2.45,2.07c-1.225.75-1.406.636-2.061.389-1.178-.437-1.083-2.032-2.042-1.975Z" transform="translate(-197.961 -205.151)" fill="#0c0c0c"/>
        <path id="Path_1077" data-name="Path 1077" d="M243.617,282.671s1.007,9.1,1.52,11.995.465,29.28.674,35.966-.427,31.4-.427,31.4l2.792,2.374-13.087,2.336s-2.574-1.035-1.757-2.954,2.517-2.137,1.985-4.825-3.153-9.136-2.612-12.7,1.9-9.934,1.358-13.334-4.863-29.527-4.53-29.83c-5.9,30.79-21.046,65.435-21.046,65.435s-3.922-3.533-5.67-3.058-3.4.969-3.4.969a3.74,3.74,0,0,1-.237-2.954c.532-1.747,2.659-4.188,3.381-6.923a12.791,12.791,0,0,1,.817-2.716s-.066-7.265.551-9.811,3.371-12.061,4.017-16.715,2.612-18.956,2.232-25.908c-.5-9.288,2.365-22.128,2.365-22.128s4.711,1,7.94,0,6.582,2.384,10.808,2.032,12.327,1.349,12.327,1.349Z" transform="translate(-195.953 -200.187)" fill="#273976"/>
        <g id="Group_3795" data-name="Group 3795" transform="translate(64.019 39.046)">
          <path id="Path_1078" data-name="Path 1078" d="M281.7,241.22s-4.179,2.479-4.825,2.783-2.64,1.453-2.64,1.453l-4.416,10.751s2.317-.475,3.381-.56,2.118.057,2.9-.5,3.59-2.308,4.008-2.507,2.84-.893,3.039-1.111,1.909-1.558,1.728-2.621c-.038-.247,1.9-.541,1.586-1.8s-1.083-.9-1.083-.9l.475-.617s2.365-.218,2.393-1.083a1.388,1.388,0,0,0-.864-1.225L281.7,241.21Z" transform="translate(-263.533 -237.327)" fill="#f1a57e"/>
          <g id="Group_3794" data-name="Group 3794" transform="translate(9.631)">
            <path id="Path_1079" data-name="Path 1079" d="M282.381,237.168l5.746,4.179a.218.218,0,0,1,.047.313l-8.68,11.928a.219.219,0,0,1-.313.048l-5.746-4.179a.219.219,0,0,1-.047-.313l8.68-11.928A.219.219,0,0,1,282.381,237.168Z" transform="translate(-273.341 -237.121)" fill="#0c5df5"/>
            <g id="Group_3793" data-name="Group 3793" transform="translate(0.151 0.237)">
              <path id="Path_1080" data-name="Path 1080" d="M282.46,237.707l5.185,3.818c.152.1.076.465.076.465l-8.168,11.226a.333.333,0,0,1-.465.076l-5.176-3.818a.333.333,0,0,1-.076-.465L282,237.783a.333.333,0,0,1,.465-.076Z" transform="translate(-273.514 -237.385)" fill="#e8eefb"/>
              <path id="Path_1081" data-name="Path 1081" d="M279.265,253.591a.59.59,0,0,1-.342-.114l-5.185-3.818a.572.572,0,0,1-.228-.38.563.563,0,0,1,.1-.437l8.168-11.226a.6.6,0,0,1,.38-.237.584.584,0,0,1,.437.1l5.185,3.818c.256.19.2.6.171.722a.169.169,0,0,1-.038.095l-8.168,11.226a.56.56,0,0,1-.475.237Zm2.982-15.718a.079.079,0,0,0-.066.038l-8.168,11.235a.3.3,0,0,0-.019.066.083.083,0,0,0,.038.057l5.185,3.818s.085.019.114-.019l8.13-11.188a1.221,1.221,0,0,0,0-.19L282.3,237.9a.244.244,0,0,0-.047-.019Z" transform="translate(-273.5 -237.371)" fill="#0c5df5"/>
            </g>
            <path id="Path_1082" data-name="Path 1082" d="M285.576,239.32s.646.465.655.475c-.218.294-.551.56-.807.361C285.187,239.966,285.4,239.387,285.576,239.32Z" transform="translate(-273.944 -237.232)" fill="#0c5df5"/>
            <path id="Path_1083" data-name="Path 1083" d="M285.568,239.756a.169.169,0,0,1,.237-.038.178.178,0,0,1,.038.237.169.169,0,0,1-.237.038A.178.178,0,0,1,285.568,239.756Z" transform="translate(-273.955 -237.25)" fill="#0c0c0c"/>
          </g>
          <path id="Path_1084" data-name="Path 1084" d="M263.2,252.691l4.825-2.469,4.891-4.055,1.254-.627,3.761.38,2.175,2.925s-.38,1.159-3.552-.456c-.969-.494-2.213,2.887-2.213,2.887l-3.22,2.089-.665,3.049-4.6,3.466-2.65-7.189Z" transform="translate(-263.2 -237.545)" fill="#feb08a"/>
        </g>
        <path id="Path_1085" data-name="Path 1085" d="M230.5,217.01s1.083,5.081,3.267,5.375,5.318.589,4.929.332-.247-1.842-.247-1.842,5.09,2.327,7.227,4.9,2.792,4.872,3.941,8.206,3.827,19.1,3.827,19.1l9.2-4.5,4.568,8.215s-13.21,10.409-16.079,10.722-5.784-2.545-5.784-2.545l-1.349,6.05.522,5.974.684,3.229s-7.579,2.165-11.881.323-5.176-2.982-10.01-3.324-5.755-.029-9.905.009-3.571-2.669-3.571-2.669l1.785-1.785-1.1-2.213-.142-2.935s-12.964-.351-13.97-8.956,6.866-24.36,6.866-24.36,3.675-6.43,7.018-9.924,20.21-7.379,20.21-7.379Z" transform="translate(-195.819 -197.064)" fill="#ffd65b"/>
        <path id="Path_1086" data-name="Path 1086" d="M247.661,263.5h-.076a.37.37,0,0,1-.285-.437c.988-4.654,1.1-23.04,1.1-23.22a.365.365,0,0,1,.37-.37.377.377,0,0,1,.37.37c0,.76-.114,18.652-1.121,23.372a.375.375,0,0,1-.361.294Z" transform="translate(-198.382 -198.194)" fill="#1d1119"/>
        <path id="Path_1087" data-name="Path 1087" d="M237.016,270.179l6.971,3.087,4.559,1.842,1.662,4.919-1.719,4.274-5.318,3.447-.038-1.88s3.115-1.966,3-3.144c-.38-3.875-4.1-2.46-4.1-2.46a2.141,2.141,0,0,1-2.773.674c-1.073-.465-3.077-3.5-3.077-3.5l-3.77-1.766,4.616-5.508Z" transform="translate(-197.633 -199.737)" fill="#feb08a"/>
        <g id="Group_3798" data-name="Group 3798" transform="translate(43.068 79.588)">
          <g id="Group_3796" data-name="Group 3796" transform="translate(23.543 30.847)">
            <path id="Path_1088" data-name="Path 1088" d="M265.93,319.35l51.114-6.61,4.055,31.379-51.114,6.61Z" transform="translate(-265.93 -312.313)" fill="#8396c6"/>
            <path id="Path_1089" data-name="Path 1089" d="M298.03,315.054l21.388-2.764,4.055,31.379-21.388,2.764Z" transform="translate(-267.544 -312.29)" fill="#acc3f1"/>
            <path id="Path_1090" data-name="Path 1090" d="M306.009,314.2l1.4,8.348,1.6-1.5,1.728,1.567,1.377-1.634,1.842.959-1.263-8.547-6.686.817Z" transform="translate(-267.945 -312.345)" fill="#fffdf3"/>
          </g>
          <path id="Path_1091" data-name="Path 1091" d="M277.469,313.648a.211.211,0,0,1-.209-.209c.01-.465.3-11.283,5.432-11.881a3.186,3.186,0,0,1,2.555.807c3,2.593,3.248,10.38,3.258,10.713a.218.218,0,0,1-.2.218.2.2,0,0,1-.218-.2c0-.076-.256-7.94-3.115-10.409a2.791,2.791,0,0,0-2.232-.7c-4.768.56-5.062,11.368-5.062,11.482a.211.211,0,0,1-.209.209Z" transform="translate(-242.956 -280.902)" fill="#130c5c"/>
          <path id="Path_1092" data-name="Path 1092" d="M273.579,309.51l-.589,41.056,28.083-3.637-.912-37.267-26.582-.152Z" transform="translate(-242.742 -281.304)" fill="#ffd65b"/>
          <path id="Path_1093" data-name="Path 1093" d="M268.154,309.539l2.735.029-.788,36.554-3.2,1.064,1.254-37.656Z" transform="translate(-242.435 -281.305)" fill="#ffd65b"/>
          <path id="Path_1094" data-name="Path 1094" d="M270.948,309.64h2.583l-.627,40.629-2.754-4.293.807-36.336Z" transform="translate(-242.599 -281.31)" fill="#c19511"/>
          <path id="Path_1095" data-name="Path 1095" d="M266.95,349.154l3.305-1.244,2.545,4.359Z" transform="translate(-242.438 -283.235)" fill="#ffdfa1"/>
          <path id="Path_1096" data-name="Path 1096" d="M282.189,312.849a.211.211,0,0,1-.209-.209c.009-.456.3-11.283,5.432-11.881a3.2,3.2,0,0,1,2.555.807c2.992,2.593,3.248,10.38,3.258,10.713a.218.218,0,0,1-.2.218.205.205,0,0,1-.218-.2c0-.076-.256-7.94-3.115-10.409a2.791,2.791,0,0,0-2.232-.7c-4.768.56-5.062,11.368-5.062,11.482a.211.211,0,0,1-.209.209Z" transform="translate(-243.194 -280.862)" fill="#130c5c"/>
          <path id="Path_1097" data-name="Path 1097" d="M298.429,327.8a.213.213,0,0,1-.209-.218c0-.266.171-6.487,3.163-6.838a1.922,1.922,0,0,1,1.52.475c1.728,1.5,1.88,5.955,1.88,6.145a.209.209,0,0,1-.418.019c0-.047-.142-4.464-1.738-5.841a1.49,1.49,0,0,0-1.2-.38c-2.631.3-2.792,6.373-2.792,6.43A.211.211,0,0,1,298.429,327.8Z" transform="translate(-244.01 -281.867)" fill="#130c5c"/>
          <path id="Path_1098" data-name="Path 1098" d="M296.232,325.36l-.332,23.306,15.946-2.061-.513-21.16-15.091-.085Z" transform="translate(-243.894 -282.101)" fill="#436df6"/>
          <path id="Path_1099" data-name="Path 1099" d="M293.153,325.38l1.558.019-.446,20.751-1.814.608.712-21.378Z" transform="translate(-243.72 -282.102)" fill="#436df6"/>
          <path id="Path_1100" data-name="Path 1100" d="M294.735,325.43H296.2l-.361,23.069-1.567-2.441.456-20.628Z" transform="translate(-243.812 -282.104)" fill="#3858d8"/>
          <path id="Path_1101" data-name="Path 1101" d="M292.47,347.863l1.871-.7,1.444,2.479-3.324-1.766Z" transform="translate(-243.721 -283.197)" fill="#5a80f6"/>
          <path id="Path_1102" data-name="Path 1102" d="M301.119,327.336a.211.211,0,0,1-.209-.209c0-.266.171-6.487,3.163-6.838a1.9,1.9,0,0,1,1.52.475c1.728,1.5,1.88,5.955,1.88,6.145a.218.218,0,0,1-.2.218.232.232,0,0,1-.218-.2c0-.047-.142-4.464-1.738-5.841a1.513,1.513,0,0,0-1.2-.38c-2.631.3-2.792,6.373-2.792,6.43a.211.211,0,0,1-.209.209Z" transform="translate(-244.146 -281.845)" fill="#130c5c"/>
          <path id="Path_1103" data-name="Path 1103" d="M292.91,293.65h30.752v18.092H292.91Z" transform="translate(-243.743 -280.506)" fill="#c2d5fb"/>
          <path id="Path_1104" data-name="Path 1104" d="M292.91,293.65h9.051v18.092H292.91Z" transform="translate(-243.743 -280.506)" fill="#8396c6"/>
          <g id="Group_3797" data-name="Group 3797">
            <path id="Path_1105" data-name="Path 1105" d="M261.658,375.087a.706.706,0,0,0,.1.627.7.7,0,0,0,.56.285h16.449a5.931,5.931,0,0,0-1.871,4.34,5.317,5.317,0,1,0,10.6,0,5.9,5.9,0,0,0-1.871-4.34h26.639a5.931,5.931,0,0,0-1.871,4.34,5.317,5.317,0,1,0,10.6,0,5.9,5.9,0,0,0-1.871-4.34h5.9a.7.7,0,0,0,0-1.406h-61.75l2.754-8.946a6.643,6.643,0,0,1,5.176-4.768l37.2-5.974a.7.7,0,1,0-.228-1.387l-37.2,5.974a8.027,8.027,0,0,0-6.3,5.736l-3.03,9.858Zm54.048.912a4.366,4.366,0,1,1-3.894,4.34A4.14,4.14,0,0,1,315.706,376ZM282.2,376a4.366,4.366,0,1,1-3.894,4.34A4.14,4.14,0,0,1,282.2,376Z" transform="translate(-242.17 -283.516)" fill="#202d51"/>
            <path id="Path_1106" data-name="Path 1106" d="M241.14,283.068a3.174,3.174,0,0,0,3.049,3.277,3.1,3.1,0,0,0,2.973-2.574h1.358a4.548,4.548,0,0,1,4.321,4.017l9.773,59.851a5.569,5.569,0,0,0,2.251,3.713,4.887,4.887,0,0,0,2.868.94,4.492,4.492,0,0,0,.788-.066l63.688-10.475a4.777,4.777,0,0,0,3.837-4.093l1.1-7.256a.69.69,0,0,0,.342-.712.658.658,0,0,0-.18-.351l4.093-26.877a5.133,5.133,0,0,0-1.149-4.122,4.322,4.322,0,0,0-3.3-1.548H255.737l-1.5-9.212a5.95,5.95,0,0,0-5.708-5.195h-1.358a3.112,3.112,0,0,0-2.973-2.574,3.174,3.174,0,0,0-3.049,3.277Zm17.427,31,6.154-.351,1.728,12.033-5.888.57-2-12.251Zm2.222,13.647,5.86-.57,1.814,12.612-5.565.864L260.79,327.7Zm75.122,1.5-4.73.741.75-9.165,5.347-.522-1.358,8.946Zm-36.232-17.5,10.314-.589v10.4l-10.133.988-.18-10.789Zm-1.225,10.931-9.364.912-.693-11.188,9.877-.57Zm12.945-11.6,9.621-.551-.484,10-9.136.893Zm9.06,10.874-.475,9.792-8.585,1.339V322.794l9.06-.883Zm-10.466,11.359-9.934,1.548-.18-10.9,10.114-.988Zm-11.33,1.766-8.775,1.368-.712-11.454,9.3-.9.18,10.988ZM288.5,336.631l-9.26,1.444-1.311-12.023,9.858-.959.712,11.539ZM277.77,324.655,276.5,313.05l10.5-.6.693,11.245-9.924.969Zm-1.425-13.011-1.472-13.457h11.245l.8,12.85Zm11.178-13.457h10.523l.2,12.2-9.934.57Zm11.928,0h10.542v11.53l-10.342.589Zm11.947,0h10.219l-.532,10.893-9.687.56Zm11.624,0h9.336l-.836,10.295L322.5,309l.522-10.808Zm8.386,11.71-.788,9.621-8.68.845.484-9.953,8.975-.513Zm1.415-.085,6.1-.351-1.425,9.383-5.451.532.779-9.564Zm-3.068,20.371-8.348,1.3.475-9.716,8.633-.836-.75,9.25Zm-.114,1.444-.76,9.26-8,1.32.446-9.279,8.3-1.3Zm-10.162,10.808-8.063,1.33v-9.279l8.519-1.33-.446,9.288Zm-9.469,1.558L300.26,345.6l-.152-9.355,9.906-1.548Zm-11.15,1.833-8.281,1.368L290,337.828l8.709-1.358.152,9.364Zm-9.678,1.6-8.747,1.444-1.026-9.383,9.193-1.434.579,9.374Zm-10.143,1.672-7.636,1.254-1.349-9.4,7.959-1.244,1.026,9.393Zm-9.184-9.535-1.795-12.536,8.481-.826,1.32,12.109Zm-3.723-25.9,8.975-.513,1.273,11.662-8.528.826Zm-.2-1.4-2.023-14.056h9.554l1.482,13.543-9.022.522Zm74.1-10-.883,5.8-6.192.351.836-10.209h3.191a2.921,2.921,0,0,1,2.232,1.064,3.727,3.727,0,0,1,.826,2.992ZM332,340.392l-1.681.275.75-9.241,4.625-.722-1.035,6.771a3.381,3.381,0,0,1-2.669,2.925Zm-67.98,7.047-.883-5.4,5.537-.864,1.349,9.412-1.719.285a3.477,3.477,0,0,1-2.6-.627,4.305,4.305,0,0,1-1.681-2.8Zm-8.035-49.233h6.525l2.032,14.141-6.183.351-2.365-14.493Zm-13.429-15.119a1.657,1.657,0,1,1,1.643,1.871A1.77,1.77,0,0,1,242.555,283.087Z" transform="translate(-241.14 -279.81)" fill="#202d51"/>
          </g>
        </g>
        <path id="Path_1107" data-name="Path 1107" d="M229.862,275.9a.293.293,0,0,1-.1-.019l-18.966-5.727a.364.364,0,0,1-.247-.456.372.372,0,0,1,.456-.247l18.719,5.651,6.876-8.642-18.643-9.887-8.946,2.137a.358.358,0,0,1-.427-.218.37.37,0,0,1,.161-.456l7.075-4.074,4.6-17.123a.365.365,0,1,1,.7.2l-4.644,17.275a.409.409,0,0,1-.171.228l-5,2.878,6.61-1.577a.4.4,0,0,1,.256.028l19.156,10.162a.386.386,0,0,1,.19.247.356.356,0,0,1-.076.3l-7.3,9.184a.379.379,0,0,1-.285.142Z" transform="translate(-196.433 -198.048)" fill="#1d1119"/>
        <path id="Path_1108" data-name="Path 1108" d="M240.319,219.791a.342.342,0,0,1-.19-.057c-2.8-1.719-3.922-5.337-3.97-5.489a.367.367,0,0,1,.7-.209c.009.038,1.092,3.5,3.647,5.081a.369.369,0,0,1,.123.5A.357.357,0,0,1,240.319,219.791Z" transform="translate(-197.821 -196.901)" fill="#1d1119"/>
        <path id="Path_1109" data-name="Path 1109" d="M234.538,211.2s-.028,3.666-2.27,5.527,2.355,6.534,4.616,6.79c3.343.38,4.787-1.292,4.787-1.292l.408-2.07-7.541-8.956Z" transform="translate(-197.596 -196.772)" fill="#feb08a"/>
        <path id="Path_1110" data-name="Path 1110" d="M237.525,209.712s-.712-4.141,3.115-5.5a71.2,71.2,0,0,1,7.921-2.2s1.89,3.59,1.766,5.309-2.45,13.866-6.847,13.286-8.68-6.619-8.68-6.619-2.137-5.014-.579-5.917,3.305,1.652,3.305,1.652Z" transform="translate(-197.696 -196.31)" fill="#feb08a"/>
        <path id="Path_1111" data-name="Path 1111" d="M237.392,209.591c1.415-.864.484-4.407,2.631-5.147s6.676-1.785,8.671-.874c1.054.484,1.577,2.517,1.577,2.517s1.453-.209,1.491-2.773-1.425-5.432-2.45-5.907a9.312,9.312,0,0,0-8.481.446s-2.08-2.916-4.6-1.415-3.438,5.5-3.438,5.5-1.529-1.377-2.127.9a9.668,9.668,0,0,0-.342,3.751s-1.358-1.453-1.387.855.7,3.979,1.52,4.53,3.58,2.507,3.58,2.507l.19-2.108s-.912-3.5.048-4.559,1.7,2.64,3.115,1.776Z" transform="translate(-197.459 -196.008)" fill="#20212c"/>
        <path id="Path_1112" data-name="Path 1112" d="M238.445,209.16a34.959,34.959,0,0,0,1.178,4.787c.361.513,4.388.389,6.154.56a3.4,3.4,0,0,1,2.84,1.615,24.265,24.265,0,0,1-.294,4.435c-.446,1.605-2.051,3.5-5.679,1.909a16.684,16.684,0,0,1-5.822-4.34,4.074,4.074,0,0,1-.921-2.27l-.19-2.156,1-4.245,1.728-.3Z" transform="translate(-197.799 -196.669)" fill="#20212c"/>
      </g>
      <g id="Group_3802" data-name="Group 3802" transform="translate(169.77 191.111)">
        <path id="Path_1121" data-name="Path 1121" d="M178.7,200.14h17.693c.4,0,.722.6.722,1.339v16.6c0,.741-.323,1.339-.722,1.339H178.7c-.4,0-.722-.6-.722-1.339v-16.6C177.98,200.738,178.3,200.14,178.7,200.14Z" transform="translate(-177.705 -199.855)" fill="#fff"/>
        <path id="Path_1122" data-name="Path 1122" d="M196.38,219.689H178.687c-.57,0-1-.693-1-1.624v-16.6c0-.931.427-1.624,1-1.624H196.38c.57,0,1,.7,1,1.624v16.6C197.378,219,196.95,219.689,196.38,219.689ZM178.687,200.4c-.171,0-.437.427-.437,1.064v16.6c0,.636.266,1.064.437,1.064H196.38c.171,0,.437-.427.437-1.064v-16.6c0-.636-.266-1.064-.437-1.064Z" transform="translate(-177.69 -199.84)" fill="#0c5df5"/>
      </g>
      <path id="Path_1123" data-name="Path 1123" d="M187.688,202.92l2.118,4.283,4.73.684-3.428,3.333.807,4.711-4.226-2.222-4.226,2.222.807-4.711-3.419-3.333,4.73-.684Z" transform="translate(-8.079 -8.884)" fill="#ffd65c"/>
      <g id="Group_3807" data-name="Group 3807" transform="translate(365.199 283.459)">
        <path id="Path_1133" data-name="Path 1133" d="M496.89,372.385l9.678,3.542,4.663-4.844L505.3,367.19l-8.414,5.195Z" transform="translate(-389.171 -300.604)" fill="#feb08a"/>
        <path id="Path_1134" data-name="Path 1134" d="M504.79,375.527s2.222,1.861,4.416,3.419,3.144,1.985,5.29.731,2.507-4.3,3.428-5.575,4.957-6.382,4.957-6.382.8-3.495-.066-4c-1.444-.836-3.78,2.061-5.6,3.609s-7.569,2.27-7.569,2.27l-4.863,5.945Z" transform="translate(-389.568 -300.422)" fill="#202e55"/>
        <path id="Path_1135" data-name="Path 1135" d="M399.452,375.392c3.542,7.6,12.954,7.522,17.874,6.287s34.759-13.457,34.759-13.457,11.957,2.26,17.826,2.973,2.3,2.156,4.245,4.046,3.637-.361,5.774.522,1.368,2.479,3.125,3.125,6.316-.845,6.316-.845L503.521,364.9s-33.059-15.946-37.495-16.449c-6.411-.722-57.22,15.87-57.22,15.87s-13.258,2.707-9.355,11.093Z" transform="translate(-384.235 -299.66)" fill="#e41e0c"/>
        <path id="Path_1136" data-name="Path 1136" d="M394.742,380.73c1.558,7.161,14.246,5.793,19.175,4.559s34.759-13.457,34.759-13.457,11.957,2.27,17.826,2.973,2.3,2.156,4.245,4.046,3.637-.361,5.774.522,1.368,2.479,3.125,3.125,6.316-.845,6.316-.845l11.131-7.8s-38.748-18.6-45.681-19.175-48.2,11.435-48.2,11.435-10.019,7.465-8.462,14.626Z" transform="translate(-384.027 -299.974)" fill="#ff200c"/>
        <path id="Path_1137" data-name="Path 1137" d="M388.419,368.259c-.75-.494-1.387,6,.256,9.668s6.2,5.309,6.2,5.309a12.436,12.436,0,0,1,1.14-6.7c1.643-3.163,3.628-7.36,3.628-7.36s-10.466-.427-11.226-.921Z" transform="translate(-383.677 -300.656)" fill="#273976"/>
        <path id="Path_1138" data-name="Path 1138" d="M491.77,382.08l7.436,2.6,5.157-4.939-4.758-3.144-7.835,5.489Z" transform="translate(-388.914 -301.077)" fill="#feb08a"/>
        <path id="Path_1139" data-name="Path 1139" d="M499.12,385.02s2.213,1.852,4.388,3.4,3.125,1.975,5.261.722,2.488-4.274,3.409-5.546,4.929-6.354,4.929-6.354.8-3.476-.066-3.979c-1.434-.836-3.751,2.042-5.575,3.59s-7.522,2.26-7.522,2.26l-4.834,5.907Z" transform="translate(-389.283 -300.901)" fill="#273976"/>
        <path id="Path_1140" data-name="Path 1140" d="M431.7,356.786l31.7-9.136,5.67-20.371a1.071,1.071,0,0,0-1.282-1.33l-10.589,2.5a2.057,2.057,0,0,0-1.5,1.415l-5.964,19.65-16.781,5.195-1.263,2.08Z" transform="translate(-385.892 -298.528)" fill="#292d48"/>
        <path id="Path_1141" data-name="Path 1141" d="M499.417,374.247a.264.264,0,0,1-.123-.028c-.361-.171-35.89-17.551-39.745-19.317-3.742-1.709-5.708-1.216-5.727-1.216a.281.281,0,0,1-.152-.541c.085-.029,2.156-.57,6.107,1.244,3.865,1.766,39.4,19.146,39.755,19.317a.277.277,0,0,1,.133.37.28.28,0,0,1-.256.161Z" transform="translate(-386.988 -299.892)" fill="#1d1119"/>
        <path id="Path_1142" data-name="Path 1142" d="M441.815,374.226a.266.266,0,0,1-.266-.2.278.278,0,0,1,.19-.351,43.455,43.455,0,0,0,6.145-2.279,8.824,8.824,0,0,0,2.441-2.916c.636-1.016,1.092-1.747,1.605-1.871a.479.479,0,0,1,.465.114c.294.3.123.988-.218,2.175a8.587,8.587,0,0,0-.361,1.6,6.513,6.513,0,0,0,.456-.579c.437-.608.845-1.178,1.349-1.026.75.218.76,1.909.731,2.621.3.085.9.237,2.042.446a24.316,24.316,0,0,0,5.413.532.283.283,0,0,1,.3.256.291.291,0,0,1-.256.3,24.394,24.394,0,0,1-5.556-.541c-2.773-.513-2.764-.684-2.745-.959a.314.314,0,0,1,.247-.294c.01-.978-.171-1.785-.342-1.833-.152.009-.541.56-.731.817-.361.494-.646.883-.978.883-.114.019-.247-.029-.38-.209-.237-.342-.047-1.054.275-2.175a9.086,9.086,0,0,0,.351-1.548,6.706,6.706,0,0,0-1.187,1.6,9.049,9.049,0,0,1-2.64,3.106,43.909,43.909,0,0,1-6.259,2.327c-.029,0-.057.01-.076.01Z" transform="translate(-386.388 -300.574)" fill="#1d1119"/>
        <path id="Path_1143" data-name="Path 1143" d="M463.2,339.466c-.171.655-.655,1.092-1.073.988s-.627-.731-.456-1.387.655-1.092,1.073-.988S463.367,338.81,463.2,339.466Z" transform="translate(-387.397 -299.139)" opacity="0.42" fill="url(#linear-gradient-4)"/>
        <path id="Path_1144" data-name="Path 1144" d="M428.43,352.214l.969,6.211a7.92,7.92,0,0,0,3.59-2.545c1.14-1.425,15.5-4.568,15.5-4.568l-4.141-2.393s-5.5-.522-7.835.066a18.287,18.287,0,0,0-4.73,2.156l-3.362,1.083Z" transform="translate(-385.728 -299.674)" fill="#feb08a"/>
        <path id="Path_1145" data-name="Path 1145" d="M420.625,318.289l-2.7,2.194L415.44,324.7a11.466,11.466,0,0,0,3.97,3.4,9.977,9.977,0,0,0,4.967.693l.712-4.6-4.473-5.917Z" transform="translate(-385.075 -298.144)" fill="#feb08a"/>
        <path id="Path_1146" data-name="Path 1146" d="M423.321,313.755s-1.377-3.818-3.286-2.146,2.3,13.011,6.05,13.2,8.006-5.708,9.3-8.481,2.83-5.812-.256-8.177c-6.325-4.844-11.8,5.594-11.8,5.594Z" transform="translate(-385.282 -297.57)" fill="#feb08a"/>
        <path id="Path_1147" data-name="Path 1147" d="M418.041,319.569l2.507-2.032s-2.08-6.287-.18-6.743,2.051,1.662,2.906,2.9c1.149,1.652.75-4.426,5.062-5.537,4.568-1.168,5.936,2.564,6.9,3.656a4.991,4.991,0,0,0,6.069,1.092c2.146-1.282,2.811-4.977.693-8.8s-3.571-1.662-4.939-2.5,1.434-3.438-3.134-4.407c-4.331-.921-5.831,3.941-8,4.169s-2.536-.817-3.837-.522c-2.735.617-4.416.484-5.6,5.945-1.225,5.66,1.539,12.783,1.539,12.783Z" transform="translate(-385.112 -297.078)" fill="#20212c"/>
        <path id="Path_1148" data-name="Path 1148" d="M415.067,322.77s-8.13,1.643-12.8,4.122c-7.493,3.979-20.856,30.78-18.529,36.213,6.2,14.493,43.687-5.47,43.687-5.47l-1.007-6.942,3.381-.731,4.388-2.279s-2.194-12.242-4.388-14.8a40.22,40.22,0,0,0-6.582-6.221c-.218-.275.418,2.042-1.434,1.975s-4.388-.361-5.888-1.994c-2.127-2.317-.826-3.865-.826-3.865Z" transform="translate(-383.467 -298.37)" fill="#273976"/>
        <path id="Path_1149" data-name="Path 1149" d="M397.774,360.9a.281.281,0,0,1-.256-.4l1.235-2.555-1.719.285a.28.28,0,0,1-.294-.152.277.277,0,0,1,.066-.332l2.669-2.412a108.8,108.8,0,0,0,6.392-9.516c2.46-4.2,5.043-8.4,5.062-8.443a.283.283,0,1,1,.484.294c-.028.038-2.6,4.245-5.062,8.433a108.506,108.506,0,0,1-6.468,9.611l-2,1.814,1.311-.218a.265.265,0,0,1,.266.114.276.276,0,0,1,.029.294l-.864,1.776,2.574-2.27s.076-.047.114-.066l25.348-6.249a.319.319,0,0,1,.228.038.281.281,0,0,1,.123.2l.817,6.591a.282.282,0,1,1-.56.066l-.779-6.278-24.977,6.154-3.571,3.153a.274.274,0,0,1-.19.066Z" transform="translate(-384.133 -299.098)" fill="#1d1119"/>
        <path id="Path_1150" data-name="Path 1150" d="M425.148,325.555a.336.336,0,0,1-.161-.038c-2.745-1.2-3.97-5.043-4.017-5.2a.387.387,0,0,1,.256-.494.4.4,0,0,1,.494.256c.009.038,1.168,3.656,3.58,4.711a.4.4,0,0,1,.209.522.39.39,0,0,1-.361.237Z" transform="translate(-385.352 -298.221)" fill="#20212c"/>
      </g>
      <g id="Group_3815" data-name="Group 3815" transform="translate(81.615 177.321)">
        <path id="Path_1168" data-name="Path 1168" d="M119.13,201.941l5.784,2.745s3.381-5,3.979-6.278a19.788,19.788,0,0,0,1.045-5.385c.076-1.263,1.206-3.932-.76-3.485a8.923,8.923,0,0,0-4.654,2.536,13.428,13.428,0,0,0-2.716,6.354l-2.678,3.523Z" transform="translate(-62.652 -186.536)" fill="#f1a076"/>
        <path id="Path_1169" data-name="Path 1169" d="M82.492,341.207s-5.575,32.423-3.656,36.906a16.563,16.563,0,0,0,5.508,6.819,73.05,73.05,0,0,1-8.187-3.324,51.831,51.831,0,0,1-4.2-3.447,45.942,45.942,0,0,0,.655-12.527,96.041,96.041,0,0,1-.456-17.617c.427-7.1,1.425-8.937,1.425-8.937l8.908,2.137Z" transform="translate(-60.279 -194.059)" fill="#feb08a"/>
        <path id="Path_1170" data-name="Path 1170" d="M71.59,379.53s8.737,6.335,10.808,6.515l3.894,1.14a8.727,8.727,0,0,1-5.375,1.444,7.686,7.686,0,0,1-4.673-2.821l-1.871-.551.579,2.792-3.922-1.016Z" transform="translate(-60.233 -196.093)" fill="#1d1119"/>
        <path id="Path_1171" data-name="Path 1171" d="M105.062,340.822s-1.852,32.841.579,37.086a16.487,16.487,0,0,0,6.249,6.145,71.721,71.721,0,0,1-8.509-2.374,53.4,53.4,0,0,1-4.568-2.944,45.882,45.882,0,0,0-.779-12.517,95.291,95.291,0,0,1-2.46-17.456c-.38-7.113.389-9.041.389-9.041l9.1,1.111Z" transform="translate(-61.462 -194.091)" fill="#feb08a"/>
        <path id="Path_1172" data-name="Path 1172" d="M98.56,380.139s9.4,5.3,11.482,5.242l4,.684a8.73,8.73,0,0,1-5.176,2.042,7.665,7.665,0,0,1-4.967-2.27l-1.918-.332.893,2.707-4.017-.56-.294-7.522Z" transform="translate(-61.617 -196.123)" fill="#1d1119"/>
        <path id="Path_1173" data-name="Path 1173" d="M83.611,276.3l18.728-.446,6.648,62.634-40.1-.674,2.023-60.326Z" transform="translate(-60.125 -190.879)" fill="#273976"/>
        <path id="Path_1174" data-name="Path 1174" d="M75.748,227.266s-4.34.921-5.356,3.732-1.368,21.967-1.567,28.957-4.3,15.043-1.7,16.421a11.184,11.184,0,0,1,3.362,2.365l-.142,3.542s10.162-2.754,15.138-3.258S103.27,277.6,103.27,277.6l-.152-2.992s.855-.522.788-7.389c.351-4.91,0-22.366,0-22.366s13.116-5.679,15.2-8.7S130,206.334,130,206.334L123.2,204.1l-.693,1.178-5.936-3.4s-8.13,15.452-12.147,16.25-15.395,4.055-17.741,4.834a6.8,6.8,0,0,0-3.077,1.7l2.08,2.165s.684,2.317-2.944,2.545c-2.83.18-6.98-2.118-6.98-2.118Z" transform="translate(-59.993 -187.159)" fill="#ff200c"/>
        <path id="Path_1175" data-name="Path 1175" d="M75.995,232.7a.28.28,0,0,1-.019-.56c.237-.009,24-1.415,30.448-5.451s15.651-20.609,15.746-20.78a.28.28,0,0,1,.494.266c-.38.684-9.355,16.867-15.936,20.979s-29.735,5.48-30.714,5.537h-.019Z" transform="translate(-60.468 -187.354)" fill="#1d1119"/>
        <path id="Path_1176" data-name="Path 1176" d="M87.85,251.313c-3.542,0-7.864-1.168-9.782-4.036a.281.281,0,1,1,.465-.313c2.279,3.409,8.471,4.264,11.89,3.542,3.476-.731,11.074-2.384,11.074-2.384l.123.551s-7.6,1.652-11.083,2.384A12.916,12.916,0,0,1,87.85,251.313Z" transform="translate(-60.584 -189.42)" fill="#1d1119"/>
        <path id="Path_1177" data-name="Path 1177" d="M97.7,230.755a.268.268,0,0,1-.142-.038L92.333,227.6a.283.283,0,0,1,.294-.484l5.223,3.115a.281.281,0,0,1-.142.522Z" transform="translate(-61.297 -188.426)" fill="#1d1119"/>
        <path id="Path_1178" data-name="Path 1178" d="M72.025,282.633a.269.269,0,0,1-.256-.171.282.282,0,0,1,.152-.37c.266-.114,6.544-2.688,11.454-2.688h.256a111.572,111.572,0,0,0,12.983-1.045.272.272,0,0,1,.313.237.279.279,0,0,1-.237.313,110.651,110.651,0,0,1-13.068,1.045c-4.834-.085-11.425,2.612-11.492,2.64a.223.223,0,0,1-.1.019Z" transform="translate(-60.269 -191.005)" fill="#1d1119"/>
        <path id="Path_1179" data-name="Path 1179" d="M125.889,203.427l6.838,2.042,1.909-4.939s4.169-3.248,4.359-5.347-.769-2.811-.883-3.6.171-2.906-.712-3.02-5.024,3.761-5.024,3.761.655-5.451-.114-5.917-2.6,4.844-2.6,4.844a36.347,36.347,0,0,1-.332,5.622c-.342,1.121-3.447,6.553-3.447,6.553Z" transform="translate(-62.991 -186.38)" fill="#feb08a"/>
        <path id="Path_1180" data-name="Path 1180" d="M80.315,218.912s-2.868-3.2-4.3-.912,8.709,9.127,12.4,5.879c.75-.665,1.453-3.732.446-7.085-.133-.427,1.32-2.355.883-2.45-1.652-.361-2.878-1.6-2.916-2.412a7.644,7.644,0,0,0-1.491-4.321,6.11,6.11,0,0,0-3.856,2.754c-1.225,2.241.37,6.078-.4,7.322l-.769,1.235Z" transform="translate(-60.477 -187.447)" fill="#feb08a"/>
        <path id="Path_1181" data-name="Path 1181" d="M77.916,222.677l-.646,6.24a7.739,7.739,0,0,0,8.832.18c.123-.19-1.548-5.48-1.548-5.48l-5.1-3.457-1.539,2.507Z" transform="translate(-60.547 -188.078)" fill="#feb08a"/>
        <path id="Path_1182" data-name="Path 1182" d="M77.967,224.856l1.054-2.593s-4.312-3.685-2.849-4.54,3.476,1.244,3.476,1.244,1.709-.959,1.719-2.26-.418-5.442,1.3-7.028a6.425,6.425,0,0,1,2.859-1.766s-1.681-4.055-6.724-2.954-8.652,2.27-10.333,5.917-1.415,6.961.228,9.222c2.9,4,9.269,4.758,9.269,4.758Z" transform="translate(-60.047 -187.304)" fill="#273976"/>
        <path id="Path_1183" data-name="Path 1183" d="M77.163,224.569l-.123-.019c-.066,0-6.477-.817-9.383-4.815-1.776-2.45-1.861-5.869-.247-9.383,1.766-3.827,5.613-4.948,10.447-6.012,5.109-1.121,6.895,3,6.9,3.049l.076.18-.2.028a6.431,6.431,0,0,0-2.773,1.728c-1.425,1.311-1.32,4.492-1.273,6.2,0,.285.019.532.019.712a.659.659,0,0,1-.2.484c-.389.389-1.3.37-2.346.351a6,6,0,0,0-2.726.323.416.416,0,0,0-.228.342c-.095.988,2.2,3.182,3.1,3.941l.085.076-1.14,2.811Zm2.422-20.105a7.611,7.611,0,0,0-1.652.19c-4.749,1.045-8.519,2.137-10.228,5.831-1.577,3.409-1.491,6.7.209,9.06,2.6,3.59,8.158,4.54,9.041,4.673l.969-2.374c-.6-.522-3.229-2.887-3.115-4.141a.72.72,0,0,1,.38-.589,6.189,6.189,0,0,1,2.9-.37c.9.019,1.823.028,2.118-.256a.351.351,0,0,0,.1-.256c0-.18,0-.418-.019-.7-.057-1.757-.161-5.033,1.377-6.449a7.5,7.5,0,0,1,2.735-1.757,5.279,5.279,0,0,0-4.815-2.878Z" transform="translate(-59.993 -187.273)" fill="#273976"/>
        <path id="Path_1184" data-name="Path 1184" d="M60.411,213.18a4.218,4.218,0,1,1,5.527,1.918,4.137,4.137,0,0,1-5.527-1.918Z" transform="translate(-59.681 -187.433)" fill="#273976"/>
        <path id="Path_1185" data-name="Path 1185" d="M63.9,214.68a4.214,4.214,0,0,1-3.856-2.412,4.105,4.105,0,0,1-.085-3.248,4.413,4.413,0,0,1,2.289-2.412,4.483,4.483,0,0,1,3.324-.18,4.118,4.118,0,0,1,2.5,5.423,4.509,4.509,0,0,1-4.169,2.83Zm.228-8.177a4.223,4.223,0,0,0-1.757.389,4.128,4.128,0,0,0-2.127,2.241,3.788,3.788,0,0,0,.076,3,3.981,3.981,0,0,0,5.318,1.842,4.128,4.128,0,0,0,2.127-2.241,3.791,3.791,0,0,0-2.308-5A4.035,4.035,0,0,0,64.124,206.5Z" transform="translate(-59.661 -187.376)" fill="#273976"/>
        <path id="Path_1186" data-name="Path 1186" d="M85.135,225.812a7.212,7.212,0,0,1-3.941-1.149.279.279,0,1,1,.323-.456,6.705,6.705,0,0,0,3.732,1.045.279.279,0,0,1,.294.266.291.291,0,0,1-.266.294h-.152Z" transform="translate(-60.738 -188.279)" fill="#1d1119"/>
        <path id="Path_1187" data-name="Path 1187" d="M82.464,231.124a13.061,13.061,0,0,1-5.841-1.909.282.282,0,1,1,.3-.475c.038.028,4.046,2.488,6.828,1.643,1.349-.408,1.842-.94,2-1.3a.926.926,0,0,0,.047-.7.278.278,0,0,1,.142-.37.282.282,0,0,1,.37.133,1.443,1.443,0,0,1-.038,1.159,3.517,3.517,0,0,1-2.365,1.624,4.929,4.929,0,0,1-1.453.2Z" transform="translate(-60.507 -188.472)" fill="#1d1119"/>
      </g>
      <g id="_26851_Converted_" data-name="26851 [Converted]" transform="translate(95.726 86.54)">
        <g id="object" transform="translate(177.92 158.72)">
          <g id="Group_3825" data-name="Group 3825" transform="translate(0)">
            <path id="Path_1190" data-name="Path 1190" d="M210.963,196.554l-1.081-.533c4.832-9.8,4.373-14.591,4.368-14.638l0-.033v-.033a13,13,0,0,0-13-13H200.1a13,13,0,0,0-13,13v.033l0,.033a13.876,13.876,0,0,0,.361,3.619,47.636,47.636,0,0,0,4.006,11.018l-1.081.533c-4.82-9.772-4.533-14.757-4.488-15.266A14.207,14.207,0,0,1,200.1,167.11h1.148a14.207,14.207,0,0,1,14.207,14.178c.045.509.331,5.494-4.488,15.266Z" transform="translate(-185.557 -166.779)" fill="#fff"/>
            <g id="Group_3823" data-name="Group 3823" transform="translate(3.339 21.135)">
              <path id="Path_1191" data-name="Path 1191" d="M263.136,754.42a1.217,1.217,0,0,0-.472,1.544L265.2,761.5a1.217,1.217,0,0,0,1.475.653l-3.515-7.688Z" transform="translate(-262.554 -752.053)" fill="#e03d2e"/>
              <path id="Path_1192" data-name="Path 1192" d="M280.732,703.184l-3.548-7.759a1.705,1.705,0,0,0-3.122,1.37l.021.048,3.515,7.688.033.071a1.705,1.705,0,1,0,3.1-1.418Z" transform="translate(-273.48 -694.429)" fill="#ea5345"/>
            </g>
            <g id="Group_3824" data-name="Group 3824" transform="translate(19.462 21.135)">
              <path id="Path_1193" data-name="Path 1193" d="M758.146,754.42a1.216,1.216,0,0,1,.472,1.544l-2.532,5.539a1.217,1.217,0,0,1-1.476.653l3.515-7.688Z" transform="translate(-751.321 -752.053)" fill="#e03d2e"/>
              <path id="Path_1194" data-name="Path 1194" d="M671.394,703.184l3.548-7.759a1.705,1.705,0,0,1,3.122,1.37c-.007.016-.013.032-.021.048l-3.515,7.688-.033.071a1.705,1.705,0,0,1-3.1-1.418Z" transform="translate(-671.239 -694.429)" fill="#ea5345"/>
            </g>
            <path id="Path_1195" data-name="Path 1195" d="M208.146,173.258h-1.868a12.686,12.686,0,0,0-12.671-12.671h-1.148a12.685,12.685,0,0,0-12.671,12.671H177.92a14.538,14.538,0,0,1,14.538-14.538h1.148a14.538,14.538,0,0,1,14.538,14.538Z" transform="translate(-177.92 -158.72)" fill="#f67165"/>
          </g>
        </g>
      </g>
      <g id="_5565_Converted_" data-name="5565 [Converted]" transform="translate(70.253 -92.418)">
        <g id="Object-2" data-name="Object" transform="translate(205.937 254.678)">
          <g id="Group_3827" data-name="Group 3827">
            <path id="Path_1196" data-name="Path 1196" d="M214.747,478.162a.78.78,0,0,0,1.07.245l.268-.143L211,468.59l-.306.163a.779.779,0,0,0-.4,1.023l.975,1.836-1.54.817a2.434,2.434,0,0,0-1.654-.807l-1.658-.108a.451.451,0,0,0-.428.662l3.462,6.523a.452.452,0,0,0,.788.016l.839-1.434a2.432,2.432,0,0,0,.259-1.822l1.54-.817,1.869,3.522Z" transform="translate(-205.937 -461.203)" fill="#617d68"/>
            <path id="Path_1197" data-name="Path 1197" d="M459.337,275.836h.02v-7.179h-.02a1.027,1.027,0,0,0-1.027,1.027v1.446h-2.817a1.787,1.787,0,0,1-1.5-.809l-1.64-2.5,6.372-3.383a.78.78,0,0,0,.4-1.023l-4.452-8.386a.779.779,0,0,0-1.069-.244l-10.583,5.618,5.086,9.674,2.269-1.2,1.753,2.671a4.015,4.015,0,0,0,3.366,1.817h2.817v1.446a1.027,1.027,0,0,0,1.027,1.026Zm-4.284-15.386a1,1,0,1,1-1.361-.41A1.005,1.005,0,0,1,455.053,260.45Zm-3.407-1.5a1.34,1.34,0,1,1,1.814.547A1.34,1.34,0,0,1,451.646,258.948Z" transform="translate(-434.832 -254.678)" fill="#617d68"/>
            <path id="Path_1198" data-name="Path 1198" d="M383.43,421.632l5.087,9.674,2.057-1.092-5.086-9.674Z" transform="translate(-377.3 -414.812)" fill="#82bf92"/>
            <path id="Path_1199" data-name="Path 1199" d="M357.586,462.411l1.069-.567-5.087-9.674-1.068.567Z" transform="translate(-347.438 -445.35)" fill="#aad4b5"/>
            <path id="Path_1200" data-name="Path 1200" d="M688.889,321.287a1.34,1.34,0,1,0,1.814.547A1.34,1.34,0,0,0,688.889,321.287Z" transform="translate(-671.528 -318.833)" fill="#aad4b5"/>
            <path id="Path_1201" data-name="Path 1201" d="M737.228,406.591a1.005,1.005,0,1,0,1.361.41A1,1,0,0,0,737.228,406.591Z" transform="translate(-718.369 -401.229)" fill="#82bf92"/>
          </g>
        </g>
      </g>
    </g>
    <circle id="Ellipse_19" data-name="Ellipse 19" cx="47" cy="47" r="47" transform="translate(410 -47)" fill="#e94335" opacity="0.7"/>
    <circle id="Ellipse_20" data-name="Ellipse 20" cx="47" cy="47" r="47" transform="translate(-32 110)" fill="#fabb06" opacity="0.7"/>
    <circle id="Ellipse_21" data-name="Ellipse 21" cx="82" cy="82" r="82" transform="translate(-51 653)" fill="#4285f3" opacity="0.7"/>
    <circle id="Ellipse_23" data-name="Ellipse 23" cx="35" cy="35" r="35" transform="translate(580 644)" fill="#e94335" opacity="0.8"/>
  </g>
</svg>
